<?xml version="1.0" encoding="UTF-8" standalone="no"?>
<!DOCTYPE svg PUBLIC "-//W3C//DTD SVG 1.1//EN" "http://www.w3.org/Graphics/SVG/1.1/DTD/svg11.dtd">
<svg width="100%" height="100%" viewBox="0 0 400 564" version="1.1" xmlns="http://www.w3.org/2000/svg" xmlns:xlink="http://www.w3.org/1999/xlink" xml:space="preserve" xmlns:serif="http://www.serif.com/" style="fill-rule:evenodd;clip-rule:evenodd;stroke-linejoin:round;stroke-miterlimit:2;">
    <path class="path1" d="M216.183,65.034c-2.117,-5.021 -7.913,-7.378 -12.934,-5.26l-51.464,21.707c-5.021,2.118 -7.378,7.914 -5.26,12.935l7.674,18.195c2.118,5.021 7.914,7.378 12.935,5.26l51.464,-21.708c5.021,-2.118 7.378,-7.913 5.26,-12.934l-7.675,-18.195Z" style="fill:#1e19d0;"/>
    <g id="svgg">
        <path class="path0" d="M210,51.958c0,0.196 -1.62,0.485 -3.6,0.642c-1.98,0.157 -3.6,0.446 -3.6,0.642c0,0.197 -0.72,0.358 -1.6,0.358c-0.88,0 -1.6,0.18 -1.6,0.4c0,0.22 -0.63,0.4 -1.4,0.4c-0.77,0 -1.4,0.18 -1.4,0.4c0,0.22 -0.72,0.4 -1.6,0.4c-0.88,0 -1.6,0.18 -1.6,0.4c0,0.22 -0.54,0.4 -1.2,0.4c-0.66,0 -1.2,0.18 -1.2,0.4c0,0.22 -0.45,0.4 -1,0.4c-0.55,0 -1,0.18 -1,0.4c0,0.22 -0.54,0.4 -1.2,0.4c-0.66,0 -1.2,0.159 -1.2,0.354c0,0.195 -0.99,0.478 -2.2,0.629c-1.21,0.151 -2.2,0.442 -2.2,0.646c0,0.204 -0.54,0.371 -1.2,0.371c-0.66,0 -1.2,0.18 -1.2,0.4c0,0.22 -0.45,0.4 -1,0.4c-0.55,0 -1,0.18 -1,0.4c0,0.22 -0.36,0.4 -0.8,0.4c-0.44,0 -0.8,0.18 -0.8,0.4c0,0.22 -0.54,0.4 -1.2,0.4c-0.66,0 -1.2,0.18 -1.2,0.4c0,0.22 -0.36,0.4 -0.8,0.4c-0.44,0 -0.8,0.18 -0.8,0.4c0,0.22 -0.27,0.4 -0.6,0.4c-0.33,0 -0.6,0.18 -0.6,0.4c0,0.22 -0.422,0.4 -0.939,0.4c-0.516,0 -1.461,0.248 -2.1,0.55c-0.638,0.303 -1.746,0.797 -2.461,1.098c-0.715,0.301 -1.3,0.683 -1.3,0.85c0,0.166 -0.36,0.302 -0.8,0.302c-0.44,0 -0.8,0.18 -0.8,0.4c0,0.22 -0.36,0.4 -0.8,0.4c-0.44,0 -0.8,0.18 -0.8,0.4c0,0.22 -0.36,0.4 -0.8,0.4c-0.44,0 -0.8,0.18 -0.8,0.4c0,0.22 -0.27,0.4 -0.6,0.4c-0.33,0 -0.6,0.18 -0.6,0.4c0,0.22 -0.36,0.4 -0.8,0.4c-0.44,0 -0.8,0.18 -0.8,0.4c0,0.22 -0.269,0.4 -0.597,0.4c-0.834,0 -3.803,1.323 -3.803,1.694c0,0.168 -0.36,0.306 -0.8,0.306c-0.44,0 -0.8,0.18 -0.8,0.4c0,0.22 -0.36,0.4 -0.8,0.4c-0.44,0 -0.8,0.18 -0.8,0.4c0,0.22 -0.317,0.4 -0.704,0.4c-0.387,0 -0.928,0.36 -1.203,0.8c-0.275,0.44 -0.768,0.8 -1.096,0.8c-0.329,0 -0.597,0.164 -0.597,0.365c0,0.201 -0.688,0.481 -1.528,0.623c-0.841,0.142 -1.781,0.608 -2.089,1.035c-0.308,0.427 -0.713,0.777 -0.9,0.777c-1.305,0 -1.839,4.286 -0.627,5.035c0.189,0.117 0.344,0.821 0.344,1.565c0,0.744 0.18,1.464 0.4,1.6c0.22,0.136 0.4,0.719 0.4,1.295c0,0.577 0.177,1.601 0.393,2.277c0.422,1.317 1.782,7.039 2.468,10.384c0.419,2.043 0.768,3.547 1.561,6.744c0.232,0.935 0.582,2.42 0.778,3.3c0.196,0.88 0.538,2.32 0.76,3.2c0.222,0.88 0.511,2.14 0.641,2.8c0.13,0.66 0.402,1.83 0.603,2.6c0.202,0.77 0.635,2.57 0.962,4c1.438,6.277 2.303,9.843 2.524,10.4c0.13,0.33 0.208,0.735 0.174,0.9c-0.035,0.165 0.116,0.3 0.336,0.3c0.22,0 0.4,-0.18 0.4,-0.4c0,-0.22 0.45,-0.4 1,-0.4c0.55,0 1,-0.18 1,-0.4c0,-0.22 0.36,-0.4 0.8,-0.4c0.44,0 0.8,-0.156 0.8,-0.347c0,-0.191 0.761,-0.45 1.691,-0.575c0.931,-0.124 1.756,-0.418 1.834,-0.652c0.078,-0.234 0.487,-0.426 0.908,-0.426c0.422,0 0.767,-0.18 0.767,-0.4c0,-0.22 0.54,-0.4 1.2,-0.4c0.66,0 1.2,-0.18 1.2,-0.4c0,-0.22 0.27,-0.4 0.6,-0.4c0.33,0 0.6,-0.18 0.6,-0.4c0,-0.22 0.36,-0.4 0.8,-0.4c0.44,0 0.8,-0.18 0.8,-0.4c0,-0.22 0.36,-0.4 0.8,-0.4c0.44,0 0.8,-0.18 0.8,-0.4c0,-0.22 0.54,-0.4 1.2,-0.4c0.66,0 1.2,-0.172 1.2,-0.382c0,-0.21 0.63,-0.5 1.4,-0.644c0.77,-0.145 1.4,-0.423 1.4,-0.619c0,-0.195 0.36,-0.355 0.8,-0.355c0.44,0 0.8,-0.18 0.8,-0.4c0,-0.22 0.54,-0.4 1.2,-0.4c0.66,0 1.2,-0.18 1.2,-0.4c0,-0.22 0.27,-0.4 0.6,-0.4c0.33,0 0.6,-0.18 0.6,-0.4c0,-0.22 0.36,-0.4 0.8,-0.4c0.44,0 0.8,-0.18 0.8,-0.4c0,-0.22 0.54,-0.4 1.2,-0.4c0.66,0 1.2,-0.18 1.2,-0.4c0,-0.22 0.27,-0.4 0.6,-0.4c0.33,0 0.6,-0.18 0.6,-0.4c0,-0.22 0.36,-0.4 0.8,-0.4c0.44,0 0.8,-0.157 0.8,-0.348c0,-0.192 0.9,-0.468 2,-0.614c1.1,-0.146 2,-0.439 2,-0.652c0,-0.212 0.27,-0.386 0.6,-0.386c0.33,0 0.6,-0.18 0.6,-0.4c0,-0.22 0.54,-0.4 1.2,-0.4c0.66,0 1.2,-0.18 1.2,-0.4c0,-0.22 0.36,-0.4 0.8,-0.4c0.44,0 0.8,-0.18 0.8,-0.4c0,-0.22 0.45,-0.4 1,-0.4c0.55,0 1,-0.18 1,-0.4c0,-0.22 0.36,-0.4 0.8,-0.4c0.44,0 0.8,-0.18 0.8,-0.4c0,-0.22 0.54,-0.4 1.2,-0.4c0.66,0 1.2,-0.169 1.2,-0.375c0,-0.207 0.81,-0.497 1.8,-0.646c0.99,-0.148 1.8,-0.429 1.8,-0.624c0,-0.195 0.36,-0.355 0.8,-0.355c0.44,0 0.8,-0.18 0.8,-0.4c0,-0.22 0.54,-0.4 1.2,-0.4c0.66,0 1.2,-0.18 1.2,-0.4c0,-0.22 0.27,-0.4 0.6,-0.4c0.33,0 0.6,-0.18 0.6,-0.4c0,-0.22 0.54,-0.4 1.2,-0.4c0.66,0 1.2,-0.18 1.2,-0.4c0,-0.22 0.54,-0.4 1.2,-0.4c0.66,0 1.2,-0.18 1.2,-0.4c0,-0.22 0.27,-0.4 0.6,-0.4c0.33,0 0.6,-0.159 0.6,-0.354c0,-0.195 0.987,-0.477 2.194,-0.628c1.206,-0.151 2.297,-0.441 2.423,-0.646c0.127,-0.205 0.67,-0.372 1.207,-0.372c0.537,0 0.976,-0.18 0.976,-0.4c0,-0.22 0.54,-0.4 1.2,-0.4c0.66,0 1.2,-0.18 1.2,-0.4c0,-0.22 0.54,-0.4 1.2,-0.4c0.66,0 1.2,-0.154 1.2,-0.343c0,-0.562 7.099,-1.362 9.466,-1.066c7.304,0.913 13.908,9.391 12.52,16.075c-0.7,3.374 -5.056,12.039 -5.949,11.834c-0.637,-0.146 -0.535,1.459 0.134,2.129c0.315,0.314 0.815,0.571 1.112,0.571c0.297,0 0.8,0.36 1.117,0.8c0.317,0.44 0.807,0.8 1.088,0.8c0.282,0 0.512,0.18 0.512,0.4c0,0.22 0.36,0.4 0.8,0.4c0.44,0 0.8,0.18 0.8,0.4c0,0.22 0.525,0.4 1.167,0.4c0.641,0 1.241,0.224 1.332,0.498c0.227,0.679 15.99,0.636 16.216,-0.044c0.088,-0.264 1.058,-0.454 2.318,-0.454c1.192,0 2.167,-0.18 2.167,-0.4c0,-0.22 0.72,-0.4 1.6,-0.4c0.88,0 1.6,-0.18 1.6,-0.4c0,-0.22 0.63,-0.4 1.4,-0.4c0.77,0 1.4,-0.18 1.4,-0.4c0,-0.22 0.54,-0.4 1.2,-0.4c0.66,0 1.2,-0.18 1.2,-0.4c0,-0.22 0.54,-0.4 1.2,-0.4c0.66,0 1.2,-0.18 1.2,-0.4c0,-0.22 0.63,-0.4 1.4,-0.4c0.77,0 1.4,-0.159 1.4,-0.354c0,-0.195 0.987,-0.477 2.194,-0.628c1.206,-0.151 2.297,-0.441 2.423,-0.646c0.127,-0.205 0.67,-0.372 1.207,-0.372c0.537,0 0.976,-0.18 0.976,-0.4c0,-0.22 0.54,-0.4 1.2,-0.4c0.66,0 1.2,-0.18 1.2,-0.4c0,-0.22 0.36,-0.4 0.8,-0.4c0.44,0 0.8,-0.18 0.8,-0.4c0,-0.22 0.45,-0.4 1,-0.4c0.55,0 1,-0.18 1,-0.4c0,-0.22 0.36,-0.4 0.8,-0.4c0.44,0 0.8,-0.18 0.8,-0.4c0,-0.22 0.54,-0.4 1.2,-0.4c0.66,0 1.2,-0.172 1.2,-0.382c0,-0.21 0.63,-0.5 1.4,-0.644c0.77,-0.145 1.4,-0.423 1.4,-0.619c0,-0.195 0.54,-0.355 1.2,-0.355c0.66,0 1.2,-0.18 1.2,-0.4c0,-0.22 0.27,-0.4 0.6,-0.4c0.33,0 0.6,-0.18 0.6,-0.4c0,-0.22 0.36,-0.4 0.8,-0.4c0.44,0 0.8,-0.18 0.8,-0.4c0,-0.22 0.36,-0.4 0.8,-0.4c0.44,0 0.8,-0.18 0.8,-0.4c0,-0.22 0.36,-0.4 0.8,-0.4c0.44,0 0.8,-0.18 0.8,-0.4c0,-0.22 0.36,-0.4 0.8,-0.4c0.44,0 0.8,-0.18 0.8,-0.4c0,-0.22 0.27,-0.4 0.6,-0.4c0.33,0 0.6,-0.164 0.6,-0.365c0,-0.201 0.72,-0.486 1.6,-0.635c0.88,-0.149 1.6,-0.434 1.6,-0.635c0,-0.201 0.348,-0.365 0.773,-0.365c0.425,0 0.887,-0.36 1.027,-0.8c0.14,-0.44 0.602,-0.8 1.027,-0.8c0.425,0 0.773,-0.18 0.773,-0.4c0,-0.22 0.36,-0.4 0.8,-0.4c0.44,0 0.8,-0.18 0.8,-0.4c0,-0.22 0.294,-0.4 0.653,-0.4c0.359,0 0.944,-0.334 1.3,-0.743c0.356,-0.408 1.052,-0.87 1.547,-1.027c0.495,-0.156 0.9,-0.452 0.9,-0.657c0,-0.205 0.36,-0.373 0.8,-0.373c0.44,0 0.8,-0.18 0.8,-0.4c0,-0.22 0.278,-0.4 0.618,-0.4c1.001,0 2.65,-1.912 2.509,-2.909l-0.127,-0.891l-17.985,-0.254c-12.671,-0.179 -18.028,-0.385 -18.133,-0.7c-0.089,-0.266 -1.182,-0.446 -2.715,-0.446c-1.445,0 -2.567,-0.175 -2.567,-0.4c0,-0.22 -0.81,-0.4 -1.8,-0.4c-0.99,0 -1.8,-0.18 -1.8,-0.4c0,-0.22 -0.9,-0.4 -2,-0.4c-1.1,0 -2,-0.18 -2,-0.4c0,-0.22 -0.45,-0.4 -1,-0.4c-0.55,0 -1,-0.18 -1,-0.4c0,-0.22 -0.72,-0.4 -1.6,-0.4c-0.88,0 -1.6,-0.18 -1.6,-0.4c0,-0.22 -0.439,-0.4 -0.976,-0.4c-0.537,0 -1.075,-0.159 -1.195,-0.354c-0.121,-0.194 -1.031,-0.475 -2.024,-0.624c-0.993,-0.149 -1.805,-0.44 -1.805,-0.647c0,-0.206 -0.45,-0.375 -1,-0.375c-0.55,0 -1,-0.18 -1,-0.4c0,-0.22 -0.36,-0.4 -0.8,-0.4c-0.44,0 -0.8,-0.18 -0.8,-0.4c0,-0.22 -0.36,-0.4 -0.8,-0.4c-0.44,0 -0.8,-0.18 -0.8,-0.4c0,-0.22 -0.32,-0.4 -0.712,-0.4c-0.391,0 -0.971,-0.36 -1.288,-0.8c-0.317,-0.44 -0.785,-0.8 -1.039,-0.8c-0.255,0 -0.687,-0.27 -0.961,-0.6c-0.274,-0.33 -0.758,-0.6 -1.075,-0.6c-0.516,0 -1.452,-0.887 -5.81,-5.5c-0.675,-0.715 -1.382,-1.3 -1.571,-1.3c-0.189,0 -0.344,-0.32 -0.344,-0.712c0,-0.391 -0.36,-0.971 -0.8,-1.288c-0.44,-0.317 -0.8,-0.897 -0.8,-1.288c0,-0.392 -0.169,-0.712 -0.375,-0.712c-0.207,0 -0.497,-0.81 -0.646,-1.8c-0.148,-0.99 -0.429,-1.8 -0.624,-1.8c-0.195,0 -0.355,-0.36 -0.355,-0.8c0,-0.44 -0.18,-0.8 -0.4,-0.8c-0.22,0 -0.4,-0.439 -0.4,-0.976c0,-0.537 -0.18,-1.088 -0.4,-1.224c-0.22,-0.136 -0.4,-0.687 -0.4,-1.224c0,-0.537 -0.18,-0.976 -0.4,-0.976c-0.22,0 -0.4,-0.54 -0.4,-1.2c0,-0.66 -0.18,-1.2 -0.4,-1.2c-0.22,0 -0.4,-0.45 -0.4,-1c0,-0.55 -0.18,-1 -0.4,-1c-0.22,0 -0.4,-0.36 -0.4,-0.8c0,-0.44 -0.18,-0.8 -0.4,-0.8c-0.22,0 -0.4,-0.54 -0.4,-1.2c0,-0.66 -0.16,-1.2 -0.355,-1.2c-0.196,0 -0.467,-0.591 -0.602,-1.313c-0.136,-0.722 -0.606,-1.572 -1.045,-1.888c-0.439,-0.317 -0.798,-0.824 -0.798,-1.127c0,-0.303 -0.54,-1.055 -1.2,-1.672c-0.66,-0.617 -1.2,-1.397 -1.2,-1.734c0,-0.336 -0.351,-0.723 -0.78,-0.86c-0.428,-0.136 -0.89,-0.598 -1.026,-1.026c-0.137,-0.429 -0.556,-0.78 -0.933,-0.78c-0.376,0 -0.944,-0.36 -1.261,-0.8c-0.317,-0.44 -0.831,-0.8 -1.141,-0.8c-0.311,0 -0.858,-0.315 -1.216,-0.7c-1.114,-1.197 -2.366,-1.704 -4.848,-1.964c-1.317,-0.137 -2.395,-0.404 -2.395,-0.593c0,-0.189 -4.23,-0.343 -9.4,-0.343c-5.256,0 -9.4,0.158 -9.4,0.358m-3.249,12.176c0.568,1.494 0.556,1.551 -0.505,2.398l-1.087,0.868l1.052,2.8c1.131,3.01 2.036,5.183 2.623,6.295c0.734,1.391 0.414,2.274 -1.044,2.883c-2.059,0.861 -2.19,0.711 -4.531,-5.196l-2.141,-5.403l-1.285,0.241c-1.393,0.262 -1.955,-0.159 -2.348,-1.759c-0.307,-1.249 0.045,-2.061 0.891,-2.061c0.38,0 0.824,-0.134 0.987,-0.297c0.523,-0.522 5.615,-2.474 6.221,-2.385c0.322,0.048 0.847,0.775 1.167,1.616m-8.403,9.648c3.478,8.515 3.464,8.183 0.39,9.155c-0.693,0.219 -1.938,-0.857 -1.938,-1.674c0,-0.261 -0.17,-0.786 -0.378,-1.168c-1.071,-1.965 -4.698,-11.64 -4.478,-11.943c2.158,-2.969 3.301,-1.965 6.404,5.63m-11.375,-2.921c0.557,0.253 1.125,0.838 1.264,1.3c0.259,0.863 1.123,2.96 1.865,4.527c1.074,2.269 0.464,3.834 -1.918,4.919l-1.767,0.805l0.791,2.009c1.043,2.646 1.029,2.721 -0.655,3.424c-2.266,0.947 -2.186,1.071 -6.557,-10.045c-0.173,-0.44 -0.603,-1.459 -0.957,-2.264c-0.685,-1.562 -0.51,-2.736 0.409,-2.736c0.31,0 0.875,-0.165 1.257,-0.367c3.682,-1.946 4.821,-2.232 6.268,-1.572m-10.69,4.039c0.473,0.621 5.717,13.645 5.717,14.199c0,0.616 -0.865,1.18 -2.269,1.48c-1.467,0.313 -1.796,-0.258 -4.945,-8.579c-0.708,-1.87 -1.444,-3.571 -1.636,-3.78c-0.872,-0.947 -0.37,-2.65 0.95,-3.224c1.622,-0.705 1.716,-0.709 2.183,-0.096m7.805,0.646c-0.38,0.234 -0.377,0.534 0.013,1.374c0.653,1.405 1.864,1.475 1.599,0.092c-0.231,-1.207 -0.959,-1.87 -1.612,-1.466m-13.127,3.37c0.386,0.926 0.849,2.044 1.029,2.484c0.181,0.44 0.604,1.43 0.941,2.2c0.959,2.194 3.069,7.749 3.069,8.081c0,0.427 -2.224,1.519 -3.094,1.519c-0.537,0 -0.995,-0.698 -1.706,-2.6c-0.535,-1.43 -1.204,-2.6 -1.486,-2.6c-0.743,0 -0.633,1.257 0.302,3.437c1.019,2.378 -0.506,4.742 -2.537,3.931c-0.637,-0.255 -6.247,-14.186 -5.986,-14.867c0.155,-0.402 2.516,-1.701 3.093,-1.701c0.08,0 1.279,2.418 2.315,4.668c0.467,1.014 1.7,0.802 1.276,-0.22c-1.905,-4.6 -1.909,-5.063 -0.05,-5.845c1.629,-0.684 2.002,-0.485 2.834,1.513m-11.136,3.681c0.863,1.817 0.63,2.301 -1.617,3.357c-2.404,1.13 -2.203,1.542 1.376,2.806c1.619,0.572 3.09,1.31 3.27,1.64c2.75,5.057 2.426,6.241 -2.19,8.004c-3.505,1.338 -3.635,1.318 -4.472,-0.686c-0.692,-1.654 -0.369,-2.066 2.308,-2.95c2.395,-0.792 1.957,-1.341 -2.226,-2.79c-2.627,-0.91 -2.762,-1.022 -3.7,-3.073c-1.7,-3.716 -1.267,-4.617 3.141,-6.541c3.238,-1.412 3.332,-1.407 4.11,0.233m38.531,4.903c0.464,0.385 1.899,3.327 3.188,6.538c2.703,6.732 2.667,7.299 -0.553,8.766c-4.767,2.172 -5.652,1.934 -7.193,-1.932c-0.586,-1.47 -1.339,-3.302 -1.672,-4.072c-0.334,-0.77 -0.769,-1.805 -0.967,-2.3c-0.197,-0.495 -0.562,-1.336 -0.81,-1.869c-0.435,-0.934 -0.287,-2.329 0.347,-3.291c1.055,-1.6 6.401,-2.884 7.66,-1.84m-10.856,4.096c0.715,0.436 1.3,0.984 1.3,1.217c0,0.234 0.36,1.171 0.8,2.081c1.05,2.174 1.009,3.358 -0.198,5.738c-1.245,2.454 -1.298,3.124 -0.202,2.571c0.44,-0.221 1.158,-0.583 1.595,-0.803c1.267,-0.638 1.61,-0.486 2.225,0.987c0.829,1.984 0.739,2.353 -0.72,2.949c-0.715,0.292 -1.705,0.696 -2.2,0.898c-0.495,0.201 -1.305,0.552 -1.8,0.778c-2.349,1.077 -3.168,0.749 -4.221,-1.689l-0.983,-2.277l1.475,-3.065c1.105,-2.298 1.41,-3.355 1.22,-4.223c-0.315,-1.435 -0.152,-1.433 -2.886,-0.02c-1.834,0.948 -2.661,0.466 -3.445,-2.009c-0.279,-0.881 0.278,-1.3 3.583,-2.699c3.367,-1.425 2.906,-1.38 4.457,-0.434m7.533,0.35c-0.391,0.634 2.444,7.045 3.181,7.194c0.826,0.166 0.637,-0.925 -0.673,-3.884c-1.712,-3.87 -1.96,-4.197 -2.508,-3.31m-17.823,3.659c0.837,0.448 1.088,0.954 3.751,7.545c2.573,6.365 2.464,6.807 -2.107,8.601c-4.116,1.615 -4.354,1.425 -7.291,-5.785c-1.291,-3.172 -2.351,-6.061 -2.355,-6.422c-0.026,-2.201 5.847,-5.092 8.002,-3.939m-10.316,4.495c0.618,0.477 2.706,5.163 2.706,6.069c0,0.237 -0.54,1.572 -1.2,2.967c-0.66,1.395 -1.2,2.603 -1.2,2.686c0,0.082 0.841,-0.211 1.87,-0.652c2.134,-0.915 2.671,-0.667 3.3,1.526c0.359,1.25 -0.623,2.504 -1.961,2.504c-0.231,0 -0.732,0.165 -1.114,0.366c-4.138,2.183 -5.132,2.091 -6.137,-0.566c-1.001,-2.645 -0.985,-2.801 0.646,-6.153c2.036,-4.183 1.546,-5.036 -2.096,-3.651l-2.092,0.795l-0.608,-1.176c-1.223,-2.365 -1.023,-2.637 3.192,-4.342c2.35,-0.95 3.798,-1.065 4.694,-0.373m7.106,0.297c0,0.827 2.901,7.603 3.255,7.603c0.874,0 0.683,-1.268 -0.681,-4.526c-1.243,-2.971 -2.574,-4.561 -2.574,-3.077m16.8,113.603c0,0.235 -1.4,0.4 -3.4,0.4c-2,0 -3.4,0.165 -3.4,0.4c0,0.222 -1.067,0.4 -2.4,0.4c-1.333,0 -2.4,0.178 -2.4,0.4c0,0.22 -0.81,0.4 -1.8,0.4c-0.99,0 -1.8,0.18 -1.8,0.4c0,0.22 -1.37,0.622 -1.81,0.622c-3.054,0 3.946,8.088 9.021,10.365c6.711,3.013 15.57,2.163 20.636,-1.274c0.88,-0.597 4.749,-2.773 6.619,-4.704c1.87,-1.931 3.496,-3.626 4.211,-4.289c1.781,-1.65 -0.316,-2.72 -3.053,-2.72c-1.307,0 -2.488,-0.18 -2.624,-0.4c-0.153,-0.247 -3.604,-0.4 -9.024,-0.4c-5.584,0 -8.776,0.145 -8.776,0.4m-28.195,5.516c-0.166,0.269 -1.892,0.884 -2.429,0.884c-0.537,0 -0.976,0.18 -0.976,0.4c0,0.22 -0.54,0.4 -1.2,0.4c-0.66,0 -1.2,0.18 -1.2,0.4c0,0.22 -0.36,0.4 -0.8,0.4c-0.44,0 -0.8,0.18 -0.8,0.4c0,0.22 -0.36,0.4 -0.8,0.4c-0.44,0 -0.8,0.18 -0.8,0.4c0,0.22 -0.27,0.4 -0.6,0.4c-0.33,0 -0.6,0.18 -0.6,0.4c0,0.22 -0.54,0.4 -1.2,0.4c-0.66,0 -1.2,0.18 -1.2,0.4c0,0.22 -0.36,0.4 -0.8,0.4c-0.44,0 -0.8,0.16 -0.8,0.355c0,0.196 -0.591,0.467 -1.313,0.602c-0.722,0.136 -1.572,0.606 -1.888,1.045c-0.317,0.439 -0.896,0.798 -1.287,0.798c-0.392,0 -0.712,0.18 -0.712,0.4c0,0.22 -0.36,0.4 -0.8,0.4c-0.44,0 -0.8,0.18 -0.8,0.4c0,0.22 -0.23,0.4 -0.512,0.4c-0.281,0 -0.771,0.36 -1.088,0.8c-0.317,0.44 -0.897,0.8 -1.288,0.8c-0.392,0 -0.712,0.177 -0.712,0.392c0,0.216 -0.495,0.515 -1.1,0.664c-0.605,0.15 -1.391,0.603 -1.747,1.008c-0.356,0.405 -0.811,0.736 -1.012,0.736c-0.2,0 -0.624,0.36 -0.941,0.8c-0.317,0.44 -0.813,0.8 -1.102,0.8c-0.288,0 -1.155,0.63 -1.925,1.4c-0.77,0.77 -1.585,1.4 -1.812,1.4c-0.227,0 -1.29,0.9 -2.361,2c-1.071,1.1 -2.14,2 -2.375,2c-0.547,0 -8.025,7.486 -8.025,8.033c0,0.226 -1.08,1.471 -2.4,2.767c-1.32,1.296 -2.4,2.554 -2.4,2.797c0,0.243 -0.45,0.858 -1,1.368c-0.55,0.51 -1,1.149 -1,1.42c0,0.272 -0.54,0.998 -1.2,1.615c-0.66,0.617 -1.2,1.397 -1.2,1.734c0,0.336 -0.36,0.726 -0.8,0.866c-0.44,0.14 -0.8,0.519 -0.8,0.844c0,0.324 -0.358,0.973 -0.795,1.443c-0.437,0.469 -0.906,1.445 -1.042,2.169c-0.149,0.797 -0.546,1.412 -1.005,1.557c-0.417,0.133 -0.758,0.589 -0.758,1.014c0,0.425 -0.18,0.773 -0.4,0.773c-0.22,0 -0.4,0.36 -0.4,0.8c0,0.44 -0.18,0.8 -0.4,0.8c-0.22,0 -0.4,0.36 -0.4,0.8c0,0.44 -0.146,0.8 -0.325,0.8c-0.179,0 -0.573,0.63 -0.875,1.4c-0.302,0.77 -0.68,1.4 -0.839,1.4c-0.16,0 -0.412,0.72 -0.561,1.6c-0.149,0.88 -0.434,1.6 -0.635,1.6c-0.201,0 -0.365,0.36 -0.365,0.8c0,0.44 -0.18,0.8 -0.4,0.8c-0.22,0 -0.4,0.45 -0.4,1c0,0.55 -0.18,1 -0.4,1c-0.22,0 -0.4,0.36 -0.4,0.8c0,0.44 -0.18,0.8 -0.4,0.8c-0.22,0 -0.4,0.54 -0.4,1.2c0,0.66 -0.18,1.2 -0.4,1.2c-0.22,0 -0.4,0.45 -0.4,1c0,0.55 -0.18,1 -0.4,1c-0.22,0 -0.4,0.54 -0.4,1.2c0,0.66 -0.167,1.2 -0.371,1.2c-0.204,0 -0.495,0.99 -0.646,2.2c-0.151,1.21 -0.434,2.2 -0.629,2.2c-0.195,0 -0.354,0.72 -0.354,1.6c0,0.88 -0.18,1.6 -0.4,1.6c-0.22,0 -0.4,0.63 -0.4,1.4c0,0.77 -0.18,1.4 -0.4,1.4c-0.22,0 -0.4,0.99 -0.4,2.2c0,1.21 -0.18,2.2 -0.4,2.2c-0.222,0 -0.4,1.067 -0.4,2.4c0,1.333 -0.178,2.4 -0.4,2.4c-0.237,0 -0.4,1.459 -0.4,3.576c0,1.967 -0.18,3.688 -0.4,3.824c-0.22,0.136 -0.4,1.516 -0.4,3.067l0,2.82l0.968,1.027c0.605,-0.15 16.951,-5.53 26.092,-8.305c2.308,-0.7 37.008,16.242 39.791,12.889c0.282,-0.341 34.516,-21.427 34.626,-21.572m-11.386,-68.117c0.162,0.601 14.666,59.906 14.901,60.91c0.583,2.488 3.326,3.967 4.791,0.756c2.474,-5.42 3.096,-10.388 0.991,-17.623c-3.427,-11.778 -0.857,-13.364 10.433,-15.732c9.921,-2.081 12.984,-8.14 12.966,-18.358c-0.018,-10.621 -1.885,-18.706 -10.544,-13.02c-1.983,1.302 -7.011,5.528 -7.291,5.528c-0.28,0 -1.944,1.576 -3.919,1.573c-3.907,-0.005 -18.92,-5.719 -21.108,-6.403m95.313,2.811c-0.574,0.422 -5.318,5.103 -6.324,6.756c-0.798,1.312 0.052,2.386 0.05,10.334c-0.001,5.711 0.492,8.303 0.169,9.056c-1.059,2.465 -2.315,2.437 -4.509,3.075c-3.725,1.083 -4.97,5.394 -3.184,8.876c0.19,0.37 0.505,1.962 0.632,2.842c0.127,0.88 -0.13,2.81 0.113,4.13c0.242,1.32 0.374,5.404 0.905,8.594c1.521,9.132 4.011,15.511 4.999,18.955c0.236,0.825 0.023,4.267 0.215,4.982c1.582,5.891 8.107,17.486 9.073,17.486c0.236,0 2.367,-0.383 3.614,-1.107c4.892,-2.84 9.321,-4.644 11.792,-3.377c0.382,0.196 1.963,0.92 3.06,1.439c1.098,0.519 3.806,3.074 6.118,4.477c2.313,1.403 4.809,2.559 5.469,2.937c0.66,0.378 1.749,2.672 3.004,3.476c3.598,2.305 4.58,-1.097 4.58,-5.182c0,-2 0.165,-3.4 0.4,-3.4c0.254,0 0.4,-3.067 0.4,-8.4c0,-5.333 -0.146,-8.4 -0.4,-8.4c-0.237,0 -0.4,-1.467 -0.4,-3.6c0,-2.133 -0.163,-3.6 -0.4,-3.6c-0.226,0 -0.4,-1.133 -0.4,-2.6c0,-1.467 -0.174,-2.6 -0.4,-2.6c-0.22,0 -0.4,-0.9 -0.4,-2c0,-1.1 -0.18,-2 -0.4,-2c-0.22,0 -0.4,-0.63 -0.4,-1.4c0,-0.77 -0.154,-1.4 -0.343,-1.4c-0.189,0 -0.46,-1.117 -0.603,-2.482c-0.142,-1.366 -0.438,-2.662 -0.656,-2.88c-0.219,-0.219 -0.398,-0.992 -0.398,-1.718c0,-0.726 -0.18,-1.32 -0.4,-1.32c-0.22,0 -0.4,-0.54 -0.4,-1.2c0,-0.66 -0.18,-1.2 -0.4,-1.2c-0.22,0 -0.4,-0.27 -0.4,-0.6c0,-0.33 -0.18,-0.6 -0.4,-0.6c-0.22,0 -0.4,-0.54 -0.4,-1.2c0,-0.66 -0.18,-1.2 -0.4,-1.2c-0.22,0 -0.4,-0.36 -0.4,-0.8c0,-0.44 -0.18,-0.8 -0.4,-0.8c-0.22,0 -0.4,-0.45 -0.4,-1c0,-0.55 -0.164,-1 -0.365,-1c-0.201,0 -0.486,-0.72 -0.635,-1.6c-0.149,-0.88 -0.434,-1.6 -0.635,-1.6c-0.201,0 -0.365,-0.36 -0.365,-0.8c0,-0.44 -0.146,-0.8 -0.325,-0.8c-0.179,0 -0.573,-0.63 -0.875,-1.4c-0.302,-0.77 -0.696,-1.4 -0.875,-1.4c-0.179,0 -0.325,-0.36 -0.325,-0.8c0,-0.44 -0.18,-0.8 -0.4,-0.8c-0.22,0 -0.4,-0.36 -0.4,-0.8c0,-0.44 -0.18,-0.8 -0.4,-0.8c-0.22,0 -0.4,-0.341 -0.4,-0.757c0,-0.417 -0.27,-0.861 -0.6,-0.988c-0.33,-0.126 -0.6,-0.596 -0.6,-1.042c0,-0.447 -0.18,-0.813 -0.4,-0.813c-0.22,0 -0.4,-0.32 -0.4,-0.712c0,-0.391 -0.36,-0.971 -0.8,-1.288c-0.44,-0.317 -0.8,-0.885 -0.8,-1.261c0,-0.377 -0.36,-0.799 -0.8,-0.939c-0.44,-0.14 -0.8,-0.52 -0.8,-0.845c0,-0.325 -0.45,-1.041 -1,-1.591c-0.55,-0.55 -1,-1.246 -1,-1.547c0,-0.3 -0.54,-1 -1.2,-1.556c-0.66,-0.555 -1.2,-1.205 -1.2,-1.444c0,-0.239 -0.99,-1.424 -2.2,-2.634c-1.21,-1.21 -2.2,-2.377 -2.2,-2.592c0,-0.599 -7.084,-7.591 -7.691,-7.591c-0.293,0 -0.792,-0.36 -1.109,-0.8m-62.305,44.62c0.363,1.274 1.359,9.163 1.516,11.253c1.062,14.091 11.563,25.917 11.673,26.029c0.11,0.112 27.364,21.337 28.694,20.799c1.973,-0.799 3.26,-3.751 2.326,-6.062c-0.178,-0.44 -11.985,-35.348 -12.195,-35.843c-0.424,-0.999 -1.318,-3.988 -3.965,-10.687c-4.856,-12.29 -7.761,-11.528 -19.685,-9.394" style="fill:#a90407;"/>
        <path class="path1" d="M126.8,58c0,0.22 -0.529,0.4 -1.176,0.4c-0.647,0 -1.29,0.183 -1.428,0.407c-0.138,0.223 -0.391,0.32 -0.562,0.214c-0.426,-0.263 -3.634,3.259 -3.634,3.99c0,0.324 -0.18,0.589 -0.4,0.589c-0.22,0 -0.4,0.36 -0.4,0.8c0,0.44 -0.18,0.8 -0.4,0.8c-0.233,0 -0.4,1.333 -0.4,3.2c0,1.867 0.167,3.2 0.4,3.2c0.22,0 0.4,0.54 0.4,1.2c0,0.66 0.18,1.2 0.4,1.2c0.22,0 0.4,0.283 0.4,0.628c0,0.346 1.53,2.138 3.4,3.983c1.87,1.845 3.4,3.632 3.4,3.972c0,0.339 0.167,0.617 0.371,0.617c0.427,0 1.629,2.259 1.629,3.061c0,0.297 0.18,0.539 0.4,0.539c0.22,0 0.4,0.36 0.4,0.8c0,0.44 0.18,0.8 0.4,0.8c0.22,0 0.4,0.45 0.4,1c0,0.55 0.18,1 0.4,1c0.22,0 0.4,0.54 0.4,1.2c0,0.66 0.18,1.2 0.4,1.2c0.22,0 0.4,0.72 0.4,1.6c0,0.88 0.18,1.6 0.4,1.6c0.22,0 0.4,0.63 0.4,1.4c0,0.77 0.18,1.4 0.4,1.4c0.22,0 0.4,0.81 0.4,1.8c0,0.99 0.154,1.8 0.341,1.8c0.188,0 0.459,1.387 0.602,3.082c0.143,1.695 0.44,3.261 0.659,3.48c0.219,0.219 0.398,0.902 0.398,1.518c0,0.616 0.18,1.12 0.4,1.12c0.22,0 0.4,0.63 0.4,1.4c0,0.77 0.18,1.4 0.4,1.4c0.22,0 0.4,0.72 0.4,1.6c0,0.88 0.18,1.6 0.4,1.6c0.22,0 0.4,0.63 0.4,1.4c0,0.77 0.18,1.4 0.4,1.4c0.22,0 0.4,0.72 0.4,1.6c0,0.88 0.18,1.6 0.4,1.6c0.22,0 0.4,0.81 0.4,1.8c0,0.99 0.159,1.8 0.353,1.8c0.194,0 0.48,1.35 0.634,3c0.155,1.65 0.446,3 0.647,3c0.201,0 0.366,0.9 0.366,2c0,1.1 0.18,2 0.4,2c0.22,0 0.4,0.63 0.4,1.4c0,0.77 0.18,1.4 0.4,1.4c0.235,0 0.4,1.4 0.4,3.4c0,2 -0.165,3.4 -0.4,3.4c-0.22,0 -0.4,0.278 -0.4,0.618c0,0.34 -0.405,1.035 -0.9,1.545c-0.495,0.51 -1.157,1.301 -1.472,1.759c-0.329,0.48 -1.219,0.941 -2.1,1.09c-0.84,0.142 -1.528,0.422 -1.528,0.623c0,0.201 -0.45,0.365 -1,0.365c-0.55,0 -1,0.18 -1,0.4c0,0.22 -0.36,0.4 -0.8,0.4c-0.44,0 -0.8,0.18 -0.8,0.4c0,0.22 -0.54,0.4 -1.2,0.4c-0.66,0 -1.2,0.18 -1.2,0.4c0,0.22 -0.36,0.4 -0.8,0.4c-0.44,0 -0.8,0.18 -0.8,0.4c0,0.22 -0.27,0.4 -0.6,0.4c-0.33,0 -0.6,0.18 -0.6,0.4c0,0.22 -0.54,0.4 -1.2,0.4c-0.66,0 -1.2,0.136 -1.2,0.302c0,0.329 -2.345,1.229 -4.1,1.573c-0.605,0.119 -1.1,0.375 -1.1,0.57c0,0.195 -0.36,0.355 -0.8,0.355c-0.44,0 -0.8,0.18 -0.8,0.4c0,0.22 -0.36,0.4 -0.8,0.4c-0.44,0 -0.8,0.18 -0.8,0.4c0,0.22 -0.45,0.4 -1,0.4c-0.55,0 -1,0.18 -1,0.4c0,0.22 -0.36,0.4 -0.8,0.4c-0.44,0 -0.8,0.18 -0.8,0.4c0,0.22 -0.36,0.4 -0.8,0.4c-0.44,0 -0.8,0.16 -0.8,0.355c0,0.304 -1.372,0.711 -3.1,0.918c-0.275,0.033 -0.5,0.21 -0.5,0.394c0,0.183 -0.36,0.333 -0.8,0.333c-0.44,0 -0.8,0.18 -0.8,0.4c0,0.22 -0.54,0.4 -1.2,0.4c-0.66,0 -1.2,0.18 -1.2,0.4c0,0.22 -0.27,0.4 -0.6,0.4c-0.33,0 -0.6,0.18 -0.6,0.4c0,0.22 -0.36,0.4 -0.8,0.4c-0.44,0 -0.8,0.18 -0.8,0.4c0,0.22 -0.54,0.4 -1.2,0.4c-0.66,0 -1.2,0.18 -1.2,0.4c0,0.22 -0.36,0.4 -0.8,0.4c-0.44,0 -0.8,0.18 -0.8,0.4c0,0.22 -0.27,0.4 -0.6,0.4c-0.33,0 -0.6,0.2 -0.6,0.443c0,0.271 -0.381,0.348 -0.975,0.199c-0.537,-0.135 -1.088,-0.064 -1.224,0.157c-0.137,0.22 -0.598,0.401 -1.025,0.401c-0.427,0 -0.776,0.18 -0.776,0.4c0,0.22 -0.27,0.4 -0.6,0.4c-0.33,0 -0.6,0.18 -0.6,0.4c0,0.22 -0.54,0.4 -1.2,0.4c-0.66,0 -1.2,0.18 -1.2,0.4c0,0.22 -0.36,0.4 -0.8,0.4c-0.44,0 -0.8,0.18 -0.8,0.4c0,0.22 -0.36,0.4 -0.8,0.4c-0.44,0 -0.8,0.18 -0.8,0.4c0,0.22 -0.45,0.4 -1,0.4c-0.55,0 -1,0.18 -1,0.4c0,0.22 -0.36,0.4 -0.8,0.4c-0.44,0 -0.8,0.169 -0.8,0.375c0,0.207 -0.81,0.497 -1.8,0.646c-0.99,0.148 -1.8,0.429 -1.8,0.624c0,0.195 -0.36,0.355 -0.8,0.355c-0.44,0 -0.8,0.18 -0.8,0.4c0,0.22 -0.36,0.4 -0.8,0.4c-0.44,0 -0.8,0.18 -0.8,0.4c0,0.22 -0.54,0.4 -1.2,0.4c-0.66,0 -1.2,0.18 -1.2,0.4c0,0.22 -0.27,0.4 -0.6,0.4c-0.33,0 -0.6,0.18 -0.6,0.4c0,0.22 -0.54,0.4 -1.2,0.4c-0.66,0 -1.2,0.18 -1.2,0.4c0,0.22 -0.36,0.4 -0.8,0.4c-0.44,0 -0.8,0.16 -0.8,0.355c0,0.195 -0.81,0.476 -1.8,0.624c-0.99,0.149 -1.8,0.439 -1.8,0.646c0,0.206 -0.54,0.375 -1.2,0.375c-0.66,0 -1.2,0.18 -1.2,0.4c0,0.22 -0.36,0.4 -0.8,0.4c-0.44,0 -0.8,0.18 -0.8,0.4c0,0.22 -0.27,0.4 -0.6,0.4c-0.33,0 -0.6,0.18 -0.6,0.4c0,0.22 -0.36,0.4 -0.8,0.4c-0.44,0 -0.8,0.18 -0.8,0.4c0,0.22 -0.36,0.4 -0.8,0.4c-0.44,0 -0.8,0.138 -0.8,0.306c0,0.349 -2.948,1.694 -3.714,1.694c-0.28,0 -0.769,0.36 -1.086,0.8c-0.317,0.44 -0.852,0.802 -1.188,0.804c-0.337,0.002 -1.037,0.542 -1.557,1.2c-0.52,0.658 -1.099,1.196 -1.287,1.196c-0.464,0 -5.622,4.596 -5.588,4.979c0.07,0.777 -0.085,1.089 -0.98,1.985c-0.55,0.55 -1,1.148 -1,1.33c0,0.181 -0.36,0.589 -0.8,0.906c-0.44,0.317 -0.8,0.897 -0.8,1.288c0,0.392 -0.18,0.712 -0.4,0.712c-0.22,0 -0.4,0.36 -0.4,0.8c0,0.44 -0.18,0.8 -0.4,0.8c-0.22,0 -0.4,0.36 -0.4,0.8c0,0.44 -0.167,0.8 -0.371,0.8c-0.204,0 -0.495,0.99 -0.646,2.2c-0.151,1.21 -0.434,2.2 -0.629,2.2c-0.195,0 -0.354,0.45 -0.354,1c0,0.55 -0.18,1 -0.4,1c-0.22,0 -0.4,0.9 -0.4,2c0,1.1 -0.18,2 -0.4,2c-0.265,0 -0.4,27.933 -0.4,83c0,55.067 0.135,83 0.4,83c0.235,0 0.4,1.4 0.4,3.4c0,2 0.165,3.4 0.4,3.4c0.226,0 0.4,1.133 0.4,2.6c0,1.43 0.158,2.6 0.352,2.6c0.194,0 0.481,1.89 0.639,4.2c0.157,2.31 0.449,4.2 0.647,4.2c0.199,0 0.362,0.63 0.362,1.4c0,0.77 0.18,1.4 0.4,1.4c0.22,0 0.4,0.72 0.4,1.6c0,0.88 0.18,1.6 0.4,1.6c0.22,0 0.4,0.63 0.4,1.4c0,0.77 0.18,1.4 0.4,1.4c0.22,0 0.4,0.72 0.4,1.6c0,0.88 0.18,1.6 0.4,1.6c0.22,0 0.4,0.45 0.4,1c0,0.55 0.18,1 0.4,1c0.22,0 0.4,0.54 0.4,1.2c0,0.66 0.159,1.2 0.354,1.2c0.195,0 0.478,0.99 0.629,2.2c0.151,1.21 0.442,2.2 0.646,2.2c0.204,0 0.371,0.54 0.371,1.2c0,0.66 0.18,1.2 0.4,1.2c0.22,0 0.4,0.36 0.4,0.8c0,0.44 0.18,0.8 0.4,0.8c0.22,0 0.4,0.45 0.4,1c0,0.55 0.18,1 0.4,1c0.22,0 0.4,0.36 0.4,0.8c0,0.44 0.18,0.8 0.4,0.8c0.22,0 0.4,0.54 0.4,1.2c0,0.66 0.18,1.2 0.4,1.2c0.22,0 0.4,0.27 0.4,0.6c0,0.33 0.18,0.6 0.4,0.6c0.22,0 0.4,0.36 0.4,0.8c0,0.44 0.199,0.8 0.443,0.8c0.253,0 0.33,0.293 0.18,0.684c-0.25,0.653 1.23,4.162 1.877,4.449c0.165,0.074 0.3,0.479 0.3,0.9c0,0.422 0.18,0.767 0.4,0.767c0.22,0 0.4,0.36 0.4,0.8c0,0.44 0.18,0.8 0.4,0.8c0.22,0 0.4,0.36 0.4,0.8c0,0.44 0.18,0.8 0.4,0.8c0.22,0 0.4,0.23 0.4,0.512c0,0.281 0.35,0.763 0.777,1.071c0.427,0.308 0.893,1.248 1.035,2.089c0.142,0.84 0.422,1.528 0.623,1.528c0.201,0 0.365,0.268 0.365,0.597c0,0.328 0.36,0.821 0.8,1.096c0.44,0.275 0.8,0.816 0.8,1.203c0,0.387 0.18,0.704 0.4,0.704c0.22,0 0.4,0.32 0.4,0.712c0,0.391 0.36,0.971 0.8,1.288c0.44,0.317 0.8,0.878 0.8,1.246c0,0.367 0.27,0.772 0.6,0.899c0.33,0.126 0.6,0.556 0.6,0.954c0,0.398 0.36,0.984 0.8,1.301c0.44,0.317 0.8,0.857 0.8,1.2c0,0.343 0.36,0.883 0.8,1.2c0.44,0.317 0.8,0.735 0.8,0.928c0,0.193 0.54,0.855 1.2,1.472c0.66,0.617 1.2,1.366 1.2,1.665c0,0.299 0.45,1.028 1,1.622c0.55,0.593 1,1.232 1,1.419c0,0.188 0.716,0.961 1.591,1.718c0.875,0.757 1.595,1.62 1.6,1.919c0.005,0.299 0.999,1.518 2.209,2.709c1.21,1.191 2.2,2.339 2.2,2.551c0,0.549 12.282,12.797 12.831,12.797c0.25,0 1.383,0.99 2.518,2.2c1.136,1.21 2.3,2.2 2.589,2.2c0.289,0 1.216,0.72 2.062,1.6c0.846,0.88 1.643,1.6 1.772,1.6c0.13,0 0.8,0.54 1.491,1.2c0.691,0.66 1.491,1.2 1.778,1.2c0.288,0 0.973,0.45 1.523,1c0.55,0.55 1.148,1 1.33,1c0.181,0 0.589,0.36 0.906,0.8c0.317,0.44 0.857,0.8 1.2,0.8c0.343,0 0.883,0.36 1.2,0.8c0.317,0.44 0.897,0.8 1.288,0.8c0.392,0 0.712,0.168 0.712,0.373c0,0.205 0.405,0.501 0.9,0.657c0.495,0.157 1.191,0.619 1.547,1.027c0.356,0.409 0.941,0.743 1.3,0.743c0.359,0 0.653,0.18 0.653,0.4c0,0.22 0.32,0.4 0.712,0.4c0.391,0 0.971,0.36 1.288,0.8c0.317,0.44 0.807,0.8 1.088,0.8c0.282,0 0.512,0.18 0.512,0.4c0,0.22 0.36,0.4 0.8,0.4c0.44,0 0.8,0.164 0.8,0.365c0,0.201 0.688,0.481 1.528,0.623c0.841,0.142 1.781,0.608 2.089,1.035c0.308,0.427 0.79,0.777 1.071,0.777c0.282,0 0.512,0.18 0.512,0.4c0,0.22 0.36,0.4 0.8,0.4c0.44,0 0.8,0.18 0.8,0.4c0,0.22 0.36,0.4 0.8,0.4c0.44,0 0.8,0.18 0.8,0.4c0,0.22 0.36,0.4 0.8,0.4c0.44,0 0.8,0.18 0.8,0.4c0,0.22 0.45,0.4 1,0.4c0.55,0 1,0.164 1,0.365c0,0.201 0.72,0.486 1.6,0.635c0.88,0.149 1.6,0.434 1.6,0.635c0,0.201 0.36,0.365 0.8,0.365c0.44,0 0.8,0.18 0.8,0.4c0,0.22 0.45,0.4 1,0.4c0.55,0 1,0.18 1,0.4c0,0.22 0.36,0.4 0.8,0.4c0.44,0 0.8,0.18 0.8,0.4c0,0.22 0.54,0.4 1.2,0.4c0.66,0 1.2,0.18 1.2,0.4c0,0.22 0.27,0.4 0.6,0.4c0.33,0 0.6,0.18 0.6,0.4c0,0.22 0.54,0.4 1.2,0.4c0.66,0 1.2,0.18 1.2,0.4c0,0.22 0.54,0.4 1.2,0.4c0.66,0 1.2,0.167 1.2,0.371c0,0.204 0.99,0.495 2.2,0.646c1.21,0.151 2.2,0.434 2.2,0.629c0,0.195 0.63,0.354 1.4,0.354c0.77,0 1.4,0.18 1.4,0.4c0,0.22 0.54,0.4 1.2,0.4c0.66,0 1.2,0.18 1.2,0.4c0,0.22 0.72,0.4 1.6,0.4c0.88,0 1.6,0.18 1.6,0.4c0,0.22 0.63,0.4 1.4,0.4c0.77,0 1.4,0.18 1.4,0.4c0,0.22 0.799,0.4 1.776,0.4c0.977,0 1.888,0.18 2.024,0.4c0.136,0.22 1.047,0.4 2.024,0.4c0.977,0 1.776,0.164 1.776,0.365c0,0.201 2.16,0.494 4.8,0.651c2.64,0.158 4.8,0.444 4.8,0.635c0,0.192 1.53,0.349 3.4,0.349c2,0 3.4,0.165 3.4,0.4c0,0.259 5.067,0.4 14.4,0.4c9.333,0 14.4,-0.141 14.4,-0.4c0,-0.237 1.467,-0.4 3.6,-0.4c1.98,0 3.6,-0.155 3.6,-0.343c0,-0.189 2.205,-0.471 4.9,-0.628c2.695,-0.156 4.96,-0.451 5.033,-0.656c0.074,-0.205 0.929,-0.373 1.9,-0.373c0.972,0 1.767,-0.18 1.767,-0.4c0,-0.22 0.72,-0.4 1.6,-0.4c0.88,0 1.6,-0.18 1.6,-0.4c0,-0.22 0.63,-0.4 1.4,-0.4c0.77,0 1.4,-0.18 1.4,-0.4c0,-0.22 0.72,-0.4 1.6,-0.4c0.88,0 1.6,-0.18 1.6,-0.4c0,-0.22 0.63,-0.4 1.4,-0.4c0.77,0 1.4,-0.18 1.4,-0.4c0,-0.22 0.54,-0.4 1.2,-0.4c0.66,0 1.2,-0.159 1.2,-0.354c0,-0.195 0.99,-0.478 2.2,-0.629c1.21,-0.151 2.2,-0.442 2.2,-0.646c0,-0.204 0.54,-0.371 1.2,-0.371c0.66,0 1.2,-0.18 1.2,-0.4c0,-0.22 0.54,-0.4 1.2,-0.4c0.66,0 1.2,-0.18 1.2,-0.4c0,-0.22 0.45,-0.4 1,-0.4c0.55,0 1,-0.18 1,-0.4c0,-0.22 0.36,-0.4 0.8,-0.4c0.44,0 0.8,-0.18 0.8,-0.4c0,-0.22 0.54,-0.4 1.2,-0.4c0.66,0 1.2,-0.18 1.2,-0.4c0,-0.22 0.27,-0.4 0.6,-0.4c0.33,0 0.6,-0.18 0.6,-0.4c0,-0.22 0.36,-0.4 0.8,-0.4c0.44,0 0.8,-0.16 0.8,-0.355c0,-0.196 0.675,-0.477 1.5,-0.625c1.806,-0.325 3.7,-1.101 3.7,-1.518c0,-0.166 0.36,-0.302 0.8,-0.302c0.44,0 0.8,-0.18 0.8,-0.4c0,-0.22 0.36,-0.4 0.8,-0.4c0.44,0 0.8,-0.18 0.8,-0.4c0,-0.22 0.36,-0.4 0.8,-0.4c0.44,0 0.8,-0.18 0.8,-0.4c0,-0.22 0.27,-0.4 0.6,-0.4c0.33,0 0.6,-0.18 0.6,-0.4c0,-0.22 0.283,-0.4 0.629,-0.4c0.345,0 0.898,-0.27 1.228,-0.6c0.33,-0.33 0.947,-0.6 1.372,-0.6c0.424,0 0.771,-0.18 0.771,-0.4c0,-0.22 0.27,-0.4 0.6,-0.4c0.33,0 0.6,-0.18 0.6,-0.4c0,-0.22 0.32,-0.4 0.712,-0.4c0.391,0 0.971,-0.36 1.288,-0.8c0.317,-0.44 0.897,-0.8 1.288,-0.8c0.392,0 0.712,-0.18 0.712,-0.4c0,-0.22 0.294,-0.4 0.653,-0.4c0.359,0 0.944,-0.334 1.3,-0.743c0.356,-0.408 1.052,-0.87 1.547,-1.027c0.495,-0.156 0.9,-0.452 0.9,-0.657c0,-0.205 0.32,-0.373 0.712,-0.373c0.391,0 0.971,-0.36 1.288,-0.8c0.317,-0.44 0.885,-0.8 1.261,-0.8c0.377,0 0.799,-0.36 0.939,-0.8c0.14,-0.44 0.52,-0.8 0.845,-0.8c0.325,0 1.041,-0.45 1.591,-1c0.55,-0.55 1.246,-1 1.547,-1c0.3,0 1,-0.54 1.556,-1.2c0.555,-0.66 1.215,-1.2 1.467,-1.2c0.251,0 1.148,-0.72 1.994,-1.6c0.846,-0.88 1.755,-1.6 2.02,-1.6c0.266,0 1.434,-0.99 2.597,-2.2c1.163,-1.21 2.307,-2.2 2.543,-2.2c0.547,0 12.84,-12.264 12.84,-12.81c0,-0.224 0.99,-1.382 2.2,-2.573c1.21,-1.191 2.204,-2.402 2.209,-2.691c0.005,-0.289 0.725,-1.145 1.6,-1.902c0.875,-0.757 1.591,-1.535 1.591,-1.729c0,-0.194 0.225,-0.603 0.5,-0.91c1.202,-1.34 1.5,-1.779 1.5,-2.208c0,-0.251 0.54,-0.96 1.2,-1.577c0.66,-0.617 1.2,-1.279 1.2,-1.472c0,-0.193 0.36,-0.611 0.8,-0.928c0.44,-0.317 0.8,-0.82 0.8,-1.117c0,-0.297 0.27,-0.81 0.6,-1.14c0.33,-0.33 0.6,-0.935 0.6,-1.345c0,-0.409 0.36,-0.858 0.8,-0.998c0.44,-0.14 0.8,-0.562 0.8,-0.939c0,-0.376 0.36,-0.944 0.8,-1.261c0.44,-0.317 0.8,-0.897 0.8,-1.288c0,-0.392 0.18,-0.712 0.4,-0.712c0.22,0 0.4,-0.317 0.4,-0.704c0,-0.387 0.351,-0.923 0.78,-1.191c0.429,-0.268 0.899,-1.121 1.045,-1.896c0.145,-0.775 0.424,-1.409 0.62,-1.409c0.195,0 0.355,-0.32 0.355,-0.712c0,-0.391 0.36,-0.971 0.8,-1.288c0.44,-0.317 0.8,-0.807 0.8,-1.088c0,-0.282 0.18,-0.512 0.4,-0.512c0.22,0 0.4,-0.36 0.4,-0.8c0,-0.44 0.18,-0.8 0.4,-0.8c0.22,0 0.4,-0.36 0.4,-0.8c0,-0.44 0.18,-0.8 0.4,-0.8c0.22,0 0.4,-0.36 0.4,-0.8c0,-0.44 0.138,-0.8 0.306,-0.8c0.371,0 1.694,-2.969 1.694,-3.803c0,-0.328 0.18,-0.597 0.4,-0.597c0.22,0 0.4,-0.54 0.4,-1.2c0,-0.66 0.18,-1.2 0.4,-1.2c0.22,0 0.4,-0.27 0.4,-0.6c0,-0.33 0.18,-0.6 0.4,-0.6c0.22,0 0.4,-0.36 0.4,-0.8c0,-0.44 0.18,-0.8 0.4,-0.8c0.22,0 0.4,-0.54 0.4,-1.2c0,-0.66 0.135,-1.201 0.3,-1.203c0.406,-0.004 1.3,-1.983 1.3,-2.877c0,-0.396 0.159,-0.72 0.354,-0.72c0.195,0 0.478,-0.99 0.629,-2.2c0.151,-1.21 0.442,-2.2 0.646,-2.2c0.204,0 0.371,-0.36 0.371,-0.8c0,-0.44 0.18,-0.8 0.4,-0.8c0.22,0 0.4,-0.72 0.4,-1.6c0,-0.88 0.18,-1.6 0.4,-1.6c0.22,0 0.4,-0.45 0.4,-1c0,-0.55 0.18,-1 0.4,-1c0.22,0 0.4,-0.54 0.4,-1.2c0,-0.66 0.18,-1.2 0.4,-1.2c0.22,0 0.4,-0.63 0.4,-1.4c0,-0.77 0.18,-1.4 0.4,-1.4c0.22,0 0.4,-0.72 0.4,-1.6c0,-0.88 0.159,-1.6 0.353,-1.6c0.194,0 0.48,-1.53 0.636,-3.4c0.155,-1.87 0.447,-3.4 0.647,-3.4c0.2,0 0.364,-0.99 0.364,-2.2c0,-1.21 0.18,-2.2 0.4,-2.2c0.22,0 0.4,-0.99 0.4,-2.2c0,-1.21 0.18,-2.2 0.4,-2.2c0.235,0 0.4,-1.4 0.4,-3.4c0,-2 0.165,-3.4 0.4,-3.4c0.265,0 0.4,-28.333 0.4,-84.2c0,-55.867 -0.135,-84.2 -0.4,-84.2c-0.22,0 -0.4,-0.81 -0.4,-1.8c0,-0.99 -0.18,-1.8 -0.4,-1.8c-0.22,0 -0.4,-0.54 -0.4,-1.2c0,-0.66 -0.18,-1.2 -0.4,-1.2c-0.22,0 -0.4,-0.54 -0.4,-1.2c0,-0.66 -0.16,-1.2 -0.355,-1.2c-0.195,0 -0.476,-0.81 -0.624,-1.8c-0.149,-0.99 -0.439,-1.8 -0.646,-1.8c-0.206,0 -0.375,-0.36 -0.375,-0.8c0,-0.44 -0.18,-0.8 -0.4,-0.8c-0.22,0 -0.4,-0.348 -0.4,-0.773c0,-0.425 -0.36,-0.887 -0.8,-1.027c-0.44,-0.14 -0.8,-0.505 -0.8,-0.812c0,-0.544 -2.44,-3.415 -4.361,-5.13c-0.529,-0.472 -1.558,-1.443 -2.287,-2.158c-0.729,-0.715 -1.472,-1.3 -1.65,-1.3c-0.179,0 -0.585,-0.36 -0.902,-0.8c-0.317,-0.44 -0.897,-0.8 -1.288,-0.8c-0.392,0 -0.712,-0.18 -0.712,-0.4c0,-0.22 -0.283,-0.4 -0.629,-0.4c-0.345,0 -0.898,-0.27 -1.228,-0.6c-0.33,-0.33 -0.947,-0.6 -1.372,-0.6c-0.424,0 -0.771,-0.18 -0.771,-0.4c0,-0.22 -0.27,-0.4 -0.6,-0.4c-0.33,0 -0.6,-0.18 -0.6,-0.4c0,-0.22 -0.36,-0.4 -0.8,-0.4c-0.44,0 -0.8,-0.18 -0.8,-0.4c0,-0.22 -0.54,-0.4 -1.2,-0.4c-0.66,0 -1.2,-0.18 -1.2,-0.4c0,-0.22 -0.27,-0.4 -0.6,-0.4c-0.33,0 -0.6,-0.18 -0.6,-0.4c0,-0.22 -0.36,-0.4 -0.8,-0.4c-0.44,0 -0.8,-0.18 -0.8,-0.4c0,-0.22 -0.54,-0.4 -1.2,-0.4c-0.66,0 -1.2,-0.169 -1.2,-0.375c0,-0.207 -0.81,-0.497 -1.8,-0.646c-0.99,-0.148 -1.8,-0.429 -1.8,-0.624c0,-0.195 -0.36,-0.355 -0.8,-0.355c-0.44,0 -0.8,-0.18 -0.8,-0.4c0,-0.22 -0.54,-0.4 -1.2,-0.4c-0.66,0 -1.2,-0.18 -1.2,-0.4c0,-0.22 -0.27,-0.4 -0.6,-0.4c-0.33,0 -0.6,-0.18 -0.6,-0.4c0,-0.22 -0.36,-0.4 -0.8,-0.4c-0.44,0 -0.8,-0.18 -0.8,-0.4c0,-0.22 -0.54,-0.4 -1.2,-0.4c-0.66,0 -1.2,-0.18 -1.2,-0.4c0,-0.22 -0.36,-0.4 -0.8,-0.4c-0.44,0 -0.8,-0.16 -0.8,-0.355c0,-0.195 -0.81,-0.476 -1.8,-0.624c-0.99,-0.149 -1.8,-0.439 -1.8,-0.646c0,-0.206 -0.54,-0.375 -1.2,-0.375c-0.66,0 -1.2,-0.18 -1.2,-0.4c0,-0.22 -0.27,-0.4 -0.6,-0.4c-0.33,0 -0.6,-0.18 -0.6,-0.4c0,-0.22 -0.36,-0.4 -0.8,-0.4c-0.44,0 -0.8,-0.18 -0.8,-0.4c0,-0.22 -0.54,-0.4 -1.2,-0.4c-0.66,0 -1.2,-0.18 -1.2,-0.4c0,-0.22 -0.36,-0.4 -0.8,-0.4c-0.44,0 -0.8,-0.18 -0.8,-0.4c0,-0.22 -0.45,-0.4 -1,-0.4c-0.55,0 -1,-0.18 -1,-0.4c0,-0.22 -0.349,-0.4 -0.776,-0.4c-0.427,0 -0.888,-0.181 -1.025,-0.401c-0.136,-0.221 -0.687,-0.292 -1.224,-0.157c-0.594,0.149 -0.975,0.072 -0.975,-0.199c0,-0.243 -0.27,-0.443 -0.6,-0.443c-0.33,0 -0.6,-0.18 -0.6,-0.4c0,-0.22 -0.54,-0.4 -1.2,-0.4c-0.66,0 -1.2,-0.18 -1.2,-0.4c0,-0.22 -0.36,-0.4 -0.8,-0.4c-0.44,0 -0.8,-0.18 -0.8,-0.4c0,-0.22 -0.27,-0.4 -0.6,-0.4c-0.33,0 -0.6,-0.18 -0.6,-0.4c0,-0.22 -0.54,-0.4 -1.2,-0.4c-0.66,0 -1.2,-0.18 -1.2,-0.4c0,-0.22 -0.36,-0.4 -0.8,-0.4c-0.44,0 -0.8,-0.18 -0.8,-0.4c0,-0.22 -0.339,-0.4 -0.754,-0.4c-0.415,0 -1.27,-0.269 -1.9,-0.598c-0.63,-0.328 -1.641,-0.598 -2.246,-0.6c-0.605,-0.001 -1.1,-0.182 -1.1,-0.402c0,-0.22 -0.36,-0.4 -0.8,-0.4c-0.44,0 -0.8,-0.18 -0.8,-0.4c0,-0.22 -0.45,-0.4 -1,-0.4c-0.55,0 -1,-0.18 -1,-0.4c0,-0.22 -0.36,-0.4 -0.8,-0.4c-0.44,0 -0.8,-0.18 -0.8,-0.4c0,-0.22 -0.36,-0.4 -0.8,-0.4c-0.44,0 -0.8,-0.18 -0.8,-0.4c0,-0.22 -0.362,-0.4 -0.805,-0.4c-0.762,0 -2.359,-0.711 -2.795,-1.244c-0.11,-0.135 -1.055,-0.371 -2.1,-0.525c-1.045,-0.154 -1.9,-0.449 -1.9,-0.656c0,-0.206 -0.45,-0.375 -1,-0.375c-0.55,0 -1,-0.18 -1,-0.4c0,-0.22 -0.36,-0.4 -0.8,-0.4c-0.44,0 -0.8,-0.18 -0.8,-0.4c0,-0.22 -0.36,-0.4 -0.8,-0.4c-0.44,0 -0.8,-0.18 -0.8,-0.4c0,-0.22 -0.45,-0.4 -1,-0.4c-0.55,0 -1,-0.18 -1,-0.4c0,-0.22 -0.36,-0.4 -0.8,-0.4c-0.44,0 -0.8,-0.18 -0.8,-0.4c0,-0.22 -0.429,-0.4 -0.954,-0.4c-0.525,0 -1.47,-0.269 -2.1,-0.598c-0.63,-0.328 -1.551,-0.598 -2.046,-0.6c-0.495,-0.001 -0.9,-0.182 -0.9,-0.402c0,-0.22 -0.36,-0.4 -0.8,-0.4c-0.44,0 -0.8,-0.18 -0.8,-0.4c0,-0.22 -0.36,-0.4 -0.8,-0.4c-0.44,0 -0.8,-0.18 -0.8,-0.4c0,-0.22 -0.45,-0.4 -1,-0.4c-0.55,0 -1,-0.18 -1,-0.4c0,-0.22 -0.36,-0.4 -0.8,-0.4c-0.44,0 -0.8,-0.18 -0.8,-0.4c0,-0.22 -0.54,-0.4 -1.2,-0.4c-0.66,0 -1.2,-0.18 -1.2,-0.4c0,-0.22 -0.36,-0.4 -0.8,-0.4c-0.44,0 -0.8,-0.18 -0.8,-0.4c0,-0.22 -0.405,-0.401 -0.9,-0.402c-0.495,-0.002 -1.416,-0.272 -2.046,-0.6c-0.63,-0.329 -1.395,-0.598 -1.7,-0.598c-0.305,0 -0.554,-0.18 -0.554,-0.4c0,-0.22 -0.45,-0.4 -1,-0.4c-0.55,0 -1,-0.18 -1,-0.4c0,-0.22 -0.36,-0.4 -0.8,-0.4c-0.44,0 -0.8,-0.18 -0.8,-0.4c0,-0.22 -0.36,-0.4 -0.8,-0.4c-0.44,0 -0.8,-0.18 -0.8,-0.4c0,-0.22 -0.324,-0.4 -0.72,-0.4c-0.894,0 -2.873,-0.894 -2.877,-1.3c-0.002,-0.165 -0.543,-0.3 -1.203,-0.3c-0.66,0 -1.2,-0.16 -1.2,-0.355c0,-0.196 -0.63,-0.474 -1.4,-0.619c-0.77,-0.144 -1.4,-0.434 -1.4,-0.644c0,-0.21 -0.54,-0.382 -1.2,-0.382c-0.66,0 -1.2,-0.18 -1.2,-0.4c0,-0.22 -0.36,-0.4 -0.8,-0.4c-0.44,0 -0.8,-0.18 -0.8,-0.4c0,-0.22 -0.36,-0.4 -0.8,-0.4c-0.44,0 -0.8,-0.18 -0.8,-0.4c0,-0.22 -0.45,-0.4 -1,-0.4c-0.55,0 -1,-0.18 -1,-0.4c0,-0.22 -0.36,-0.4 -0.8,-0.4c-0.44,0 -0.8,-0.18 -0.8,-0.4c0,-0.22 -0.525,-0.4 -1.167,-0.4c-0.641,0 -1.23,-0.192 -1.308,-0.426c-0.078,-0.234 -0.903,-0.528 -1.834,-0.652c-0.93,-0.125 -1.691,-0.384 -1.691,-0.575c0,-0.191 -0.72,-0.347 -1.6,-0.347c-0.88,0 -1.6,-0.18 -1.6,-0.4c0,-0.22 -0.81,-0.4 -1.8,-0.4c-0.99,0 -1.8,-0.18 -1.8,-0.4c0,-0.253 -2.867,-0.4 -7.8,-0.4c-4.933,0 -7.8,0.147 -7.8,0.4c0,0.22 -0.9,0.4 -2,0.4c-1.1,0 -2,0.18 -2,0.4c0,0.22 -0.63,0.4 -1.4,0.4c-0.77,0 -1.4,0.157 -1.4,0.348c0,0.192 -0.893,0.467 -1.984,0.612c-1.091,0.145 -2.091,0.438 -2.223,0.652c-0.132,0.213 -0.59,0.388 -1.017,0.388c-0.427,0 -0.776,0.18 -0.776,0.4c0,0.22 -0.36,0.4 -0.8,0.4c-0.44,0 -0.8,0.18 -0.8,0.4c0,0.22 -0.54,0.4 -1.2,0.4c-0.66,0 -1.2,0.18 -1.2,0.4c0,0.22 -0.23,0.4 -0.512,0.4c-0.281,0 -0.771,0.36 -1.088,0.8c-0.317,0.44 -0.897,0.8 -1.288,0.8c-0.392,0 -0.712,0.18 -0.712,0.4c0,0.22 -0.324,0.4 -0.72,0.4c-0.396,0 -0.936,0.216 -1.2,0.48c-0.264,0.264 -0.48,0.323 -0.48,0.13c0,-0.192 -0.45,0.073 -1,0.59c-0.55,0.517 -1,1.228 -1,1.581c0,0.354 -0.36,0.902 -0.8,1.219c-0.891,0.642 -1.265,10 -0.4,10c0.22,0 0.4,0.72 0.4,1.6c0,0.88 0.159,1.6 0.353,1.6c0.195,0 0.482,1.201 0.64,2.668c0.34,3.183 0.851,4.132 2.223,4.132c0.563,0 1.24,0.216 1.504,0.48c0.373,0.373 0.587,0.373 0.96,0c0.264,-0.264 1.074,-0.48 1.8,-0.48c0.726,0 1.32,-0.18 1.32,-0.4c0,-0.22 0.54,-0.4 1.2,-0.4c0.66,0 1.2,-0.18 1.2,-0.4c0,-0.22 0.36,-0.4 0.8,-0.4c0.44,0 0.8,-0.18 0.8,-0.4c0,-0.22 0.27,-0.4 0.6,-0.4c0.33,0 0.6,-0.18 0.6,-0.4c0,-0.22 0.294,-0.4 0.653,-0.4c0.359,0 0.944,-0.331 1.3,-0.736c0.356,-0.405 1.366,-0.85 2.244,-0.99c0.878,-0.141 1.658,-0.439 1.733,-0.665c0.075,-0.225 0.662,-0.409 1.303,-0.409c0.642,0 1.167,-0.18 1.167,-0.4c0,-0.22 0.72,-0.4 1.6,-0.4c0.88,0 1.6,-0.18 1.6,-0.4c0,-0.226 1.133,-0.4 2.6,-0.4c1.467,0 2.6,-0.174 2.6,-0.4c0,-0.22 0.63,-0.4 1.4,-0.4c0.77,0 1.4,0.18 1.4,0.4c0,0.231 1.267,0.4 3,0.4c1.733,0 3,0.169 3,0.4c0,0.22 0.72,0.4 1.6,0.4c0.88,0 1.6,0.18 1.6,0.4c0,0.22 0.619,0.4 1.376,0.4c0.757,0 1.475,0.159 1.595,0.354c0.121,0.194 1.031,0.475 2.024,0.624c0.993,0.149 1.805,0.44 1.805,0.647c0,0.206 0.45,0.375 1,0.375c0.55,0 1,0.18 1,0.4c0,0.22 0.36,0.4 0.8,0.4c0.44,0 0.8,0.18 0.8,0.4c0,0.22 0.36,0.4 0.8,0.4c0.44,0 0.8,0.18 0.8,0.4c0,0.22 0.54,0.4 1.2,0.4c0.66,0 1.2,0.18 1.2,0.4c0,0.22 0.27,0.4 0.6,0.4c0.33,0 0.6,0.18 0.6,0.4c0,0.22 0.36,0.4 0.8,0.4c0.44,0 0.8,0.18 0.8,0.4c0,0.22 0.449,0.4 0.997,0.4c1.14,0 4.203,1.235 4.203,1.694c0,0.168 0.36,0.306 0.8,0.306c0.44,0 0.8,0.18 0.8,0.4c0,0.22 0.54,0.4 1.2,0.4c0.66,0 1.2,0.18 1.2,0.4c0,0.22 0.27,0.4 0.6,0.4c0.33,0 0.6,0.18 0.6,0.4c0,0.22 0.36,0.4 0.8,0.4c0.44,0 0.8,0.18 0.8,0.4c0,0.22 0.54,0.4 1.2,0.4c0.66,0 1.2,0.16 1.2,0.355c0,0.196 0.63,0.474 1.4,0.619c0.77,0.144 1.4,0.434 1.4,0.644c0,0.21 0.54,0.382 1.2,0.382c0.66,0 1.2,0.18 1.2,0.4c0,0.22 0.36,0.4 0.8,0.4c0.44,0 0.8,0.18 0.8,0.4c0,0.22 0.45,0.4 1,0.4c0.55,0 1,0.18 1,0.4c0,0.22 0.36,0.4 0.8,0.4c0.44,0 0.8,0.18 0.8,0.4c0,0.22 0.36,0.4 0.8,0.4c0.44,0 0.8,0.18 0.8,0.4c0,0.22 0.54,0.4 1.2,0.4c0.66,0 1.2,0.138 1.2,0.306c0,0.459 3.063,1.694 4.203,1.694c0.548,0 0.997,0.18 0.997,0.4c0,0.22 0.27,0.4 0.6,0.4c0.33,0 0.6,0.18 0.6,0.4c0,0.22 0.54,0.4 1.2,0.4c0.66,0 1.2,0.18 1.2,0.4c0,0.22 0.36,0.4 0.8,0.4c0.44,0 0.8,0.18 0.8,0.4c0,0.22 0.36,0.4 0.8,0.4c0.44,0 0.8,0.18 0.8,0.4c0,0.22 0.45,0.4 1,0.4c0.55,0 1,0.18 1,0.4c0,0.22 0.36,0.4 0.8,0.4c0.44,0 0.8,0.156 0.8,0.347c0,0.191 0.761,0.45 1.691,0.575c0.931,0.124 1.756,0.418 1.834,0.652c0.078,0.234 0.667,0.426 1.308,0.426c0.642,0 1.167,0.18 1.167,0.4c0,0.22 0.36,0.4 0.8,0.4c0.44,0 0.8,0.18 0.8,0.4c0,0.22 0.36,0.4 0.8,0.4c0.44,0 0.8,0.18 0.8,0.4c0,0.22 0.45,0.4 1,0.4c0.55,0 1,0.18 1,0.4c0,0.22 0.36,0.4 0.8,0.4c0.44,0 0.8,0.18 0.8,0.4c0,0.22 0.525,0.4 1.167,0.4c0.641,0 1.23,0.192 1.308,0.426c0.078,0.234 0.903,0.528 1.834,0.652c0.93,0.125 1.691,0.384 1.691,0.575c0,0.191 0.36,0.347 0.8,0.347c0.44,0 0.8,0.18 0.8,0.4c0,0.22 0.45,0.4 1,0.4c0.55,0 1,0.18 1,0.4c0,0.22 0.36,0.4 0.8,0.4c0.44,0 0.8,0.18 0.8,0.4c0,0.22 0.54,0.4 1.2,0.4c0.66,0 1.2,0.18 1.2,0.4c0,0.22 0.36,0.4 0.8,0.4c0.44,0 0.8,0.18 0.8,0.4c0,0.22 0.27,0.4 0.6,0.4c0.33,0 0.6,0.157 0.6,0.348c0,0.192 0.9,0.468 2,0.614c1.1,0.146 2,0.439 2,0.652c0,0.212 0.45,0.386 1,0.386c0.55,0 1,0.18 1,0.4c0,0.22 0.36,0.4 0.8,0.4c0.44,0 0.8,0.18 0.8,0.4c0,0.22 0.54,0.4 1.2,0.4c0.66,0 1.2,0.18 1.2,0.4c0,0.22 0.36,0.4 0.8,0.4c0.44,0 0.8,0.18 0.8,0.4c0,0.22 0.45,0.4 1,0.4c0.55,0 1,0.18 1,0.4c0,0.22 0.36,0.4 0.8,0.4c0.44,0 0.8,0.156 0.8,0.347c0,0.191 0.761,0.45 1.691,0.575c0.931,0.124 1.756,0.418 1.834,0.652c0.078,0.234 0.667,0.426 1.308,0.426c0.642,0 1.167,0.18 1.167,0.4c0,0.22 0.36,0.4 0.8,0.4c0.44,0 0.8,0.18 0.8,0.4c0,0.22 0.45,0.4 1,0.4c0.55,0 1,0.18 1,0.4c0,0.22 0.36,0.4 0.8,0.4c0.44,0 0.8,0.18 0.8,0.4c0,0.22 0.36,0.4 0.8,0.4c0.44,0 0.8,0.18 0.8,0.4c0,0.22 0.54,0.4 1.2,0.4c0.66,0 1.2,0.136 1.2,0.302c0,0.417 1.894,1.193 3.7,1.518c0.825,0.148 1.5,0.429 1.5,0.625c0,0.195 0.23,0.355 0.512,0.355c0.281,0 0.771,0.36 1.088,0.8c0.317,0.44 0.811,0.8 1.098,0.8c0.736,0 6.902,6.241 6.902,6.986c0,0.338 0.18,0.614 0.4,0.614c0.22,0 0.4,0.36 0.4,0.8c0,0.44 0.18,0.8 0.4,0.8c0.22,0 0.4,0.63 0.4,1.4c0,0.77 0.18,1.4 0.4,1.4c0.265,0 0.4,23.8 0.4,70.6c0,56.21 -0.102,70.601 -0.5,70.606c-0.333,0.004 -0.3,0.136 0.1,0.394c0.504,0.326 0.48,0.389 -0.153,0.394c-0.414,0.003 -1.044,-0.33 -1.4,-0.74c-0.356,-0.411 -1.198,-0.867 -1.87,-1.015c-0.672,-0.148 -1.476,-0.622 -1.788,-1.054c-0.311,-0.432 -0.846,-0.785 -1.189,-0.785c-0.343,0 -0.883,-0.36 -1.2,-0.8c-0.317,-0.44 -0.897,-0.8 -1.288,-0.8c-0.392,0 -0.712,-0.18 -0.712,-0.4c0,-0.22 -0.268,-0.4 -0.597,-0.4c-0.328,0 -0.821,-0.36 -1.096,-0.8c-0.275,-0.44 -0.794,-0.8 -1.154,-0.8c-0.36,0 -0.879,-0.27 -1.153,-0.6c-0.274,-0.33 -0.796,-0.6 -1.161,-0.6c-0.364,0 -0.922,-0.36 -1.239,-0.8c-0.317,-0.44 -0.807,-0.8 -1.088,-0.8c-0.282,0 -0.512,-0.18 -0.512,-0.4c0,-0.22 -0.32,-0.4 -0.712,-0.4c-0.391,0 -0.971,-0.36 -1.288,-0.8c-0.317,-0.44 -0.857,-0.8 -1.2,-0.8c-0.343,0 -0.878,-0.353 -1.189,-0.785c-0.312,-0.432 -1.116,-0.906 -1.788,-1.054c-0.672,-0.148 -1.514,-0.604 -1.87,-1.015c-0.356,-0.41 -0.901,-0.746 -1.212,-0.746c-0.31,0 -0.824,-0.36 -1.141,-0.8c-0.317,-0.44 -0.805,-0.8 -1.085,-0.8c-0.279,0 -0.733,-0.36 -1.008,-0.8c-0.275,-0.44 -0.816,-0.8 -1.203,-0.8c-0.387,0 -0.704,-0.177 -0.704,-0.392c0,-0.216 -0.495,-0.512 -1.1,-0.657c-0.945,-0.227 -2.135,-0.876 -7.093,-3.872c-0.437,-0.263 -1.549,-0.974 -2.472,-1.579c-0.924,-0.605 -1.778,-1.1 -1.899,-1.1c-0.121,0 -1.169,-0.601 -2.328,-1.336c-3.492,-2.213 -6.711,-3.864 -7.533,-3.864c-0.426,0 -0.775,-0.18 -0.775,-0.4c0,-0.522 -4.968,-0.522 -6.005,0c-0.437,0.22 -1.153,0.58 -1.59,0.8c-0.437,0.22 -1.067,0.4 -1.4,0.4c-0.333,0 -0.605,0.138 -0.605,0.306c0,0.168 -0.675,0.625 -1.5,1.016c-0.825,0.392 -2.002,1.019 -2.616,1.395c-1.088,0.666 -1.134,0.659 -1.89,-0.317c-1.492,-1.924 -4.557,-8.585 -5.981,-13c-0.497,-1.54 -1.063,-3.113 -1.258,-3.495c-0.195,-0.382 -0.355,-1.136 -0.355,-1.676c0,-0.54 -0.18,-1.093 -0.4,-1.229c-0.22,-0.136 -0.4,-0.766 -0.4,-1.4c0,-0.634 -0.18,-1.264 -0.4,-1.4c-0.22,-0.136 -0.4,-0.831 -0.4,-1.544c0,-0.713 -0.162,-1.467 -0.359,-1.676c-0.197,-0.209 -0.458,-1.1 -0.58,-1.98c-0.121,-0.88 -0.411,-2.59 -0.644,-3.8c-0.657,-3.42 -1.654,-9.61 -1.866,-11.6c-0.106,-0.99 -0.354,-2.16 -0.551,-2.6c-0.197,-0.44 -0.452,-1.61 -0.566,-2.6c-0.455,-3.927 -0.731,-5.416 -1.075,-5.78c-0.197,-0.209 -0.359,-1.056 -0.359,-1.881c0,-0.826 -0.189,-1.916 -0.42,-2.423c-0.97,-2.13 2.113,-5.516 5.022,-5.516c2.764,0 3.868,-4.035 3.731,-13.626c-0.133,-9.243 -0.268,-8.866 5.678,-15.908c0.434,-0.514 0.789,-1.279 0.789,-1.7c0,-0.421 0.18,-0.766 0.4,-0.766c0.24,0 0.4,-1.6 0.4,-4c0,-2.4 -0.16,-4 -0.4,-4c-0.22,0 -0.4,-0.9 -0.4,-2c0,-1.1 0.18,-2 0.4,-2c0.22,0 0.4,-0.45 0.4,-1c0,-0.55 0.18,-1 0.4,-1c0.22,0 0.4,-0.54 0.4,-1.2c0,-0.66 0.18,-1.2 0.4,-1.2c0.22,0 0.4,-0.902 0.4,-2.005c0,-1.103 0.225,-2.387 0.5,-2.853c0.4,-0.677 0.4,-0.883 0,-1.028c-0.297,-0.107 -0.5,-0.897 -0.5,-1.947c0,-0.972 -0.18,-1.767 -0.4,-1.767c-0.22,0 -0.4,-0.264 -0.4,-0.587c0,-0.777 -4.484,-5.413 -5.236,-5.413c-0.323,0 -0.847,-0.36 -1.164,-0.8c-0.317,-0.44 -0.897,-0.8 -1.288,-0.8c-0.392,0 -0.712,-0.18 -0.712,-0.4c0,-0.22 -0.36,-0.4 -0.8,-0.4c-0.44,0 -0.8,-0.18 -0.8,-0.4c0,-0.22 -0.45,-0.4 -1,-0.4c-0.55,0 -1,-0.18 -1,-0.4c0,-0.22 -0.9,-0.4 -2,-0.4c-1.1,0 -2,-0.18 -2,-0.4c0,-0.22 -0.63,-0.4 -1.4,-0.4c-0.77,0 -1.4,-0.156 -1.4,-0.347c0,-0.191 -0.704,-0.442 -1.565,-0.558c-1.662,-0.223 -6.835,-4.809 -6.835,-6.061c0,-0.319 -0.343,-0.689 -0.762,-0.822c-0.591,-0.188 -0.825,-0.778 -1.04,-2.627c-0.152,-1.312 -0.439,-2.385 -0.637,-2.385c-0.199,0 -0.361,-0.63 -0.361,-1.4c0,-0.77 -0.18,-1.4 -0.4,-1.4c-0.22,0 -0.4,-0.54 -0.4,-1.2c0,-0.66 -0.18,-1.2 -0.4,-1.2c-0.22,0 -0.4,-0.348 -0.4,-0.773c0,-0.425 -0.36,-0.887 -0.8,-1.027c-0.44,-0.14 -0.8,-0.52 -0.8,-0.845c0,-0.625 -1.733,-2.555 -2.294,-2.555c-0.181,0 -0.589,-0.36 -0.906,-0.8c-0.317,-0.44 -0.882,-0.8 -1.255,-0.8c-0.373,0 -0.753,-0.225 -0.845,-0.5c-0.236,-0.706 -11.568,-0.695 -11.804,0.012c-0.089,0.268 -0.468,0.488 -0.841,0.488c-0.373,0 -0.938,0.36 -1.255,0.8c-0.317,0.44 -0.767,0.8 -1,0.8c-0.233,0 -0.683,0.36 -1,0.8c-0.317,0.44 -0.857,0.8 -1.2,0.8c-0.343,0 -0.879,0.354 -1.191,0.787c-0.339,0.471 -1.26,0.892 -2.288,1.046c-0.947,0.142 -1.721,0.417 -1.721,0.612c0,0.195 -0.54,0.355 -1.2,0.355c-0.66,0 -1.2,0.18 -1.2,0.4c0,0.22 -0.283,0.4 -0.629,0.4c-0.894,0 -1.631,0.854 -1.937,2.245c-0.332,1.512 0.798,2.955 2.313,2.955c0.579,0 1.053,0.18 1.053,0.4c0,0.22 0.32,0.4 0.712,0.4c0.391,0 0.976,0.385 1.3,0.855c0.323,0.471 0.993,1.272 1.488,1.782c0.495,0.51 0.9,1.115 0.9,1.345c0,0.23 0.18,0.418 0.4,0.418c0.22,0 0.4,0.36 0.4,0.8c0,0.44 0.18,0.8 0.4,0.8c0.22,0 0.4,0.54 0.4,1.2c0,0.66 0.18,1.2 0.4,1.2c0.22,0 0.4,0.81 0.4,1.8c0,0.99 0.18,1.8 0.4,1.8c0.22,0 0.4,0.72 0.4,1.6c0,0.88 0.16,1.6 0.355,1.6c0.304,0 0.711,1.372 0.918,3.1c0.033,0.275 0.21,0.5 0.394,0.5c0.555,0 0.373,2.018 -0.238,2.629c-0.315,0.314 -0.945,0.571 -1.4,0.571c-0.456,0 -0.829,0.18 -0.829,0.4c0,0.22 -0.216,0.4 -0.48,0.4c-1.138,0 -5.12,1.417 -5.12,1.821c0,0.244 -0.434,0.676 -0.964,0.96c-0.53,0.283 -1.835,1.529 -2.9,2.767c-3.614,4.204 -8.936,7.811 -8.936,8.005c0,0.36 -0.42,0.533 -3.6,1.477c-2.07,0.615 -9.117,0.749 -10.481,0.2c-0.506,-0.204 -1.774,-0.603 -2.819,-0.887c-1.045,-0.285 -3.905,-2.017 -4.4,-2.174c-1.179,-0.374 -5.9,-5.125 -5.9,-5.938c0,-0.347 -0.16,-0.631 -0.355,-0.631c-0.196,0 -0.474,-0.63 -0.619,-1.4c-0.144,-0.77 -0.413,-1.4 -0.598,-1.4c-0.185,0 -0.46,-0.99 -0.611,-2.2c-0.151,-1.21 -0.442,-2.2 -0.646,-2.2c-0.204,0 -0.371,-0.54 -0.371,-1.2c0,-0.66 -0.18,-1.2 -0.4,-1.2c-0.22,0 -0.4,-0.63 -0.4,-1.4c0,-0.77 -0.18,-1.4 -0.4,-1.4c-0.22,0 -0.4,-0.54 -0.4,-1.2c0,-0.66 -0.18,-1.2 -0.4,-1.2c-0.22,0 -0.4,-0.63 -0.4,-1.4c0,-0.77 -0.18,-1.4 -0.4,-1.4c-0.22,0 -0.4,-0.54 -0.4,-1.2c0,-0.66 -0.18,-1.2 -0.4,-1.2c-0.22,0 -0.4,-0.72 -0.4,-1.6c0,-0.88 -0.18,-1.6 -0.4,-1.6c-0.22,0 -0.4,-0.45 -0.4,-1c0,-0.55 -0.159,-1 -0.353,-1c-0.194,0 -0.48,-1.35 -0.634,-3c-0.155,-1.65 -0.446,-3 -0.647,-3c-0.201,0 -0.366,-0.72 -0.366,-1.6c0,-0.88 -0.18,-1.6 -0.4,-1.6c-0.22,0 -0.4,-0.63 -0.4,-1.4c0,-0.77 -0.18,-1.4 -0.4,-1.4c-0.22,0 -0.4,-0.72 -0.4,-1.6c0,-0.88 -0.18,-1.6 -0.4,-1.6c-0.22,0 -0.4,-0.63 -0.4,-1.4c0,-0.77 -0.18,-1.4 -0.4,-1.4c-0.22,0 -0.4,-0.72 -0.4,-1.6c0,-0.88 -0.18,-1.6 -0.4,-1.6c-0.22,0 -0.4,-0.81 -0.4,-1.8c0,-0.99 -0.159,-1.8 -0.353,-1.8c-0.194,0 -0.48,-1.35 -0.634,-3c-0.155,-1.65 -0.446,-3 -0.647,-3c-0.201,0 -0.366,-0.72 -0.366,-1.6c0,-0.88 -0.18,-1.6 -0.4,-1.6c-0.22,0 -0.4,-0.63 -0.4,-1.4c0,-0.77 -0.18,-1.4 -0.4,-1.4c-0.22,0 -0.4,-0.9 -0.4,-2c0,-1.1 -0.18,-2 -0.4,-2c-0.22,0 -0.4,-0.63 -0.4,-1.4c0,-0.77 -0.18,-1.4 -0.4,-1.4c-0.22,0 -0.4,-0.72 -0.4,-1.6c0,-0.88 -0.18,-1.6 -0.4,-1.6c-0.22,0 -0.4,-0.63 -0.4,-1.4c0,-0.77 -0.159,-1.4 -0.353,-1.4c-0.194,0 -0.48,-1.35 -0.634,-3c-0.155,-1.65 -0.446,-3 -0.647,-3c-0.201,0 -0.366,-0.393 -0.366,-0.873c0,-0.481 -0.339,-1.876 -0.752,-3.1c-0.414,-1.225 -1.054,-3.667 -1.421,-5.427c-0.721,-3.449 -1.264,-5.685 -1.854,-7.628c-0.205,-0.676 -0.373,-1.7 -0.373,-2.277c0,-0.576 -0.161,-1.147 -0.358,-1.269c-0.197,-0.121 -0.456,-0.897 -0.577,-1.723c-0.416,-2.847 -0.72,-4.305 -1.065,-5.103c-0.19,-0.44 -0.432,-1.34 -0.538,-2c-0.106,-0.66 -0.665,-3.27 -1.242,-5.8c-0.577,-2.53 -1.156,-5.369 -1.288,-6.309c-0.131,-0.94 -0.394,-1.806 -0.585,-1.924c-0.191,-0.118 -0.347,-0.823 -0.347,-1.567c0,-0.744 -0.18,-1.464 -0.4,-1.6c-0.22,-0.136 -0.4,-0.856 -0.4,-1.6c0,-0.744 -0.18,-1.464 -0.4,-1.6c-0.22,-0.136 -0.4,-0.837 -0.4,-1.557c0,-0.72 -0.135,-1.444 -0.299,-1.609c-0.847,-0.847 -1.667,-9.434 -0.901,-9.434c0.22,0 0.4,-0.345 0.4,-0.767c0,-0.421 0.225,-0.841 0.5,-0.933c0.364,-0.121 0.5,-1.509 0.5,-5.1c0,-3.591 -0.136,-4.978 -0.5,-5.1c-0.275,-0.092 -0.5,-0.426 -0.5,-0.744c0,-1.176 -3.475,-4.127 -5.182,-4.399c-0.89,-0.143 -1.618,-0.416 -1.618,-0.608c0,-0.192 -1.35,-0.349 -3,-0.349c-1.733,0 -3,0.169 -3,0.4m47.003,17.748c-0.472,0.346 0.406,-0.297 0,0m56.373,29.677c-0.55,0.444 -0.631,0.686 -0.276,0.833c0.275,0.115 0.5,0.554 0.5,0.975c0,0.422 0.18,0.767 0.4,0.767c0.22,0 0.4,0.27 0.4,0.6c0,0.33 0.18,0.6 0.4,0.6c0.22,0 0.4,0.36 0.4,0.8c0,0.44 0.18,0.8 0.4,0.8c0.22,0 0.4,0.32 0.4,0.712c0,0.391 0.353,0.966 0.785,1.277c0.432,0.312 0.896,1.069 1.031,1.684c0.135,0.615 0.412,1.221 0.615,1.346c0.203,0.126 0.369,0.578 0.369,1.005c0,0.427 0.18,0.776 0.4,0.776c0.22,0 0.4,0.36 0.4,0.8c0,0.44 0.18,0.8 0.4,0.8c0.22,0 0.4,0.27 0.4,0.6c0,0.33 0.18,0.6 0.4,0.6c0.22,0 0.4,0.36 0.4,0.8c0,0.44 0.18,0.8 0.4,0.8c0.22,0 0.4,0.54 0.4,1.2c0,0.66 0.18,1.2 0.4,1.2c0.22,0 0.4,0.36 0.4,0.8c0,0.44 0.172,0.8 0.382,0.8c0.21,0 0.5,0.63 0.644,1.4c0.145,0.77 0.423,1.4 0.619,1.4c0.195,0 0.355,0.36 0.355,0.8c0,0.44 0.18,0.8 0.4,0.8c0.22,0 0.4,0.36 0.4,0.8c0,2.597 2.436,-0.815 5.853,-8.2c2.793,-6.035 -1.673,-15.137 -8.633,-17.593c-2.374,-0.838 -8.395,-0.826 -9.444,0.018m-79.638,72.277c0.584,0.584 1.062,1.34 1.062,1.68c0,0.34 0.18,0.618 0.4,0.618c0.22,0 0.4,0.345 0.4,0.767c0,0.421 0.192,0.83 0.426,0.908c0.234,0.078 0.528,0.903 0.652,1.834c0.125,0.93 0.384,1.691 0.575,1.691c0.191,0 0.347,0.619 0.347,1.376c0,0.757 0.18,1.488 0.4,1.624c0.22,0.136 0.4,0.867 0.4,1.624c0,0.757 0.18,1.376 0.4,1.376c0.22,0 0.4,0.72 0.4,1.6c0,0.88 0.18,1.6 0.4,1.6c0.22,0 0.4,0.63 0.4,1.4c0,0.77 0.18,1.4 0.4,1.4c0.22,0 0.4,0.72 0.4,1.6c0,0.88 0.18,1.6 0.4,1.6c0.22,0 0.4,0.81 0.4,1.8c0,0.99 0.164,1.8 0.364,1.8c0.2,0 0.492,1.53 0.647,3.4c0.156,1.87 0.442,3.4 0.636,3.4c0.194,0 0.353,0.81 0.353,1.8c0,0.99 0.18,1.8 0.4,1.8c0.22,0 0.4,0.9 0.4,2c0,1.1 0.137,2 0.305,2c0.168,0 0.632,1.215 1.032,2.7c0.401,1.485 0.893,3.113 1.095,3.619c0.203,0.505 0.368,1.35 0.368,1.876c0,0.527 0.18,1.069 0.4,1.205c0.22,0.136 0.4,0.766 0.4,1.4c0,0.634 0.18,1.264 0.4,1.4c0.22,0.136 0.4,0.766 0.4,1.4c0,0.634 0.18,1.264 0.4,1.4c0.22,0.136 0.4,0.676 0.4,1.2c0,0.524 0.18,1.064 0.4,1.2c0.22,0.136 0.4,0.766 0.4,1.4c0,0.634 0.18,1.264 0.4,1.4c0.22,0.136 0.4,0.741 0.4,1.344c0,0.603 0.15,1.267 0.333,1.476c0.183,0.209 0.667,1.82 1.076,3.58c0.408,1.76 0.888,3.371 1.067,3.58c0.178,0.209 0.324,0.873 0.324,1.476c0,0.603 0.18,1.208 0.4,1.344c0.22,0.136 0.4,0.766 0.4,1.4c0,0.634 0.18,1.264 0.4,1.4c0.22,0.136 0.4,0.766 0.4,1.4c0,0.634 0.18,1.264 0.4,1.4c0.22,0.136 0.4,0.676 0.4,1.2c0,0.524 0.16,1.052 0.356,1.173c0.195,0.121 0.449,0.806 0.563,1.523c0.289,1.821 1.919,7.96 2.336,8.799c0.19,0.382 0.345,1.136 0.345,1.676c0,0.54 0.18,1.093 0.4,1.229c0.22,0.136 0.4,0.766 0.4,1.4c0,0.634 0.16,1.252 0.356,1.373c0.195,0.121 0.449,0.806 0.563,1.523c0.113,0.717 0.415,2.024 0.67,2.904c0.255,0.88 0.618,2.23 0.807,3c0.188,0.77 0.715,2.93 1.17,4.8c0.456,1.87 1.01,3.953 1.231,4.628c0.222,0.676 0.403,1.7 0.403,2.277c0,0.576 0.18,1.159 0.4,1.295c0.22,0.136 0.4,0.856 0.4,1.6c0,0.744 0.161,1.452 0.358,1.574c0.197,0.121 0.467,0.942 0.6,1.823c0.133,0.882 0.352,2.338 0.487,3.237c0.392,2.612 -3.246,7.966 -5.412,7.966c-0.238,0 -0.433,0.18 -0.433,0.4c0,0.22 -0.172,0.4 -0.382,0.4c-0.38,0 -8.437,5.097 -8.818,5.578c-0.11,0.14 -1.73,1.315 -3.6,2.612c-1.87,1.297 -4.505,3.213 -5.856,4.259c-5.117,3.96 -9.177,5.355 -12.516,4.3c-1.657,-0.524 -7.333,-3.166 -7.628,-3.552c-0.11,-0.143 -0.785,-0.516 -1.5,-0.827c-0.715,-0.311 -1.3,-0.701 -1.3,-0.868c0,-0.166 -0.345,-0.302 -0.767,-0.302c-0.421,0 -0.826,-0.141 -0.9,-0.312c-0.176,-0.413 -9.188,-4.895 -9.833,-4.891c-0.275,0.002 -0.5,-0.177 -0.5,-0.397c0,-0.22 -0.324,-0.4 -0.72,-0.4c-0.396,0 -0.891,-0.143 -1.1,-0.318c-1.364,-1.143 -5.862,-1.821 -8.38,-1.264c-1.1,0.243 -2.587,0.539 -3.304,0.656c-0.717,0.118 -1.402,0.375 -1.523,0.57c-0.121,0.196 -0.739,0.356 -1.373,0.356c-0.634,0 -1.264,0.18 -1.4,0.4c-0.136,0.22 -0.676,0.4 -1.2,0.4c-0.524,0 -1.064,0.18 -1.2,0.4c-0.136,0.22 -0.599,0.4 -1.029,0.4c-0.43,0 -1.094,0.164 -1.476,0.364c-0.382,0.2 -2.315,0.844 -4.295,1.43c-1.98,0.586 -3.913,1.232 -4.295,1.435c-0.382,0.204 -1.046,0.371 -1.476,0.371c-0.43,0 -0.893,0.18 -1.029,0.4c-0.136,0.22 -0.687,0.4 -1.224,0.4c-0.537,0 -0.976,0.18 -0.976,0.4c0,0.22 -0.529,0.4 -1.176,0.4c-0.647,0 -1.293,0.189 -1.436,0.419c-0.179,0.291 -0.422,0.285 -0.788,-0.019c-0.366,-0.304 -0.609,-0.31 -0.788,-0.019c-0.143,0.23 -0.699,0.419 -1.236,0.419c-0.537,0 -0.976,0.18 -0.976,0.4c0,0.22 -0.54,0.4 -1.2,0.4c-0.66,0 -1.2,0.18 -1.2,0.4c0,0.22 -0.54,0.4 -1.2,0.4c-0.66,0 -1.2,0.18 -1.2,0.4c0,0.22 -0.45,0.4 -1,0.4c-0.55,0 -1,0.18 -1,0.4c0,0.22 -0.36,0.4 -0.8,0.4c-0.44,0 -0.8,0.18 -0.8,0.4c0,0.22 -0.439,0.4 -0.976,0.4c-0.537,0 -1.088,0.18 -1.224,0.4c-0.136,0.22 -0.687,0.4 -1.224,0.4c-0.537,0 -0.976,0.183 -0.976,0.408c0,0.23 -0.417,0.303 -0.956,0.167c-0.526,-0.132 -1.077,-0.045 -1.224,0.193c-0.147,0.237 -0.581,0.432 -0.964,0.432c-0.875,0 -2.849,0.899 -2.853,1.3c-0.002,0.165 -0.543,0.3 -1.203,0.3c-0.66,0 -1.2,0.18 -1.2,0.4c0,0.22 -0.54,0.4 -1.2,0.4c-0.66,0 -1.2,0.18 -1.2,0.4c0,0.22 -0.435,0.4 -0.967,0.4c-0.531,0 -1.026,0.164 -1.1,0.363c-0.073,0.2 -0.45,0.425 -0.838,0.5c-0.67,0.13 -0.704,-2.268 -0.695,-48.563c0.006,-32.579 -0.125,-48.7 -0.395,-48.7c-0.257,0 -0.405,-2.416 -0.405,-6.6c0,-4.133 0.149,-6.6 0.4,-6.6c0.222,0 0.4,-1.067 0.4,-2.4c0,-1.333 0.178,-2.4 0.4,-2.4c0.22,0 0.4,-0.27 0.4,-0.6c0,-0.33 0.18,-0.6 0.4,-0.6c0.22,0 0.4,-0.474 0.4,-1.053c0,-0.579 0.331,-1.344 0.736,-1.7c0.405,-0.356 0.858,-1.142 1.008,-1.747c0.149,-0.605 0.443,-1.1 0.653,-1.1c0.21,0 1.192,-0.81 2.182,-1.8c0.99,-0.99 2.063,-1.8 2.384,-1.8c0.32,0 0.697,-0.36 0.837,-0.8c0.14,-0.44 0.602,-0.8 1.027,-0.8c0.425,0 0.773,-0.164 0.773,-0.365c0,-0.201 0.72,-0.486 1.6,-0.635c0.88,-0.149 1.6,-0.434 1.6,-0.635c0,-0.201 0.45,-0.365 1,-0.365c0.55,0 1,-0.18 1,-0.4c0,-0.22 0.36,-0.4 0.8,-0.4c0.44,0 0.8,-0.18 0.8,-0.4c0,-0.22 0.36,-0.4 0.8,-0.4c0.44,0 0.8,-0.18 0.8,-0.4c0,-0.22 0.54,-0.4 1.2,-0.4c0.66,0 1.2,-0.18 1.2,-0.4c0,-0.22 0.27,-0.4 0.6,-0.4c0.33,0 0.6,-0.18 0.6,-0.4c0,-0.22 0.54,-0.4 1.2,-0.4c0.66,0 1.2,-0.18 1.2,-0.4c0,-0.22 0.345,-0.4 0.767,-0.4c0.421,0 0.83,-0.192 0.908,-0.426c0.078,-0.234 0.903,-0.528 1.834,-0.652c0.93,-0.125 1.691,-0.384 1.691,-0.575c0,-0.191 0.36,-0.347 0.8,-0.347c0.44,0 0.8,-0.18 0.8,-0.4c0,-0.22 0.54,-0.4 1.2,-0.4c0.66,0 1.2,-0.18 1.2,-0.4c0,-0.22 0.27,-0.4 0.6,-0.4c0.33,0 0.6,-0.18 0.6,-0.4c0,-0.22 0.36,-0.4 0.8,-0.4c0.44,0 0.8,-0.18 0.8,-0.4c0,-0.22 0.54,-0.4 1.2,-0.4c0.66,0 1.2,-0.18 1.2,-0.4c0,-0.22 0.27,-0.4 0.6,-0.4c0.33,0 0.6,-0.174 0.6,-0.386c0,-0.213 0.9,-0.506 2,-0.652c1.1,-0.146 2,-0.388 2,-0.539c0,-0.15 0.63,-0.521 1.4,-0.823c0.77,-0.302 1.4,-0.696 1.4,-0.875c0,-0.179 0.54,-0.325 1.2,-0.325c0.66,0 1.2,-0.18 1.2,-0.4c0,-0.22 0.36,-0.4 0.8,-0.4c0.44,0 0.8,-0.18 0.8,-0.4c0,-0.22 0.45,-0.4 1,-0.4c0.55,0 1,-0.18 1,-0.4c0,-0.22 0.36,-0.4 0.8,-0.4c0.44,0 0.8,-0.16 0.8,-0.355c0,-0.196 0.675,-0.477 1.5,-0.625c1.806,-0.325 3.7,-1.101 3.7,-1.518c0,-0.166 0.36,-0.302 0.8,-0.302c0.44,0 0.8,-0.18 0.8,-0.4c0,-0.22 0.54,-0.4 1.2,-0.4c0.66,0 1.2,-0.18 1.2,-0.4c0,-0.22 0.27,-0.4 0.6,-0.4c0.33,0 0.6,-0.18 0.6,-0.4c0,-0.22 0.36,-0.4 0.8,-0.4c0.44,0 0.8,-0.18 0.8,-0.4c0,-0.22 0.54,-0.4 1.2,-0.4c0.66,0 1.2,-0.16 1.2,-0.355c0,-0.196 0.63,-0.474 1.4,-0.619c0.77,-0.144 1.4,-0.434 1.4,-0.644c0,-0.21 0.54,-0.382 1.2,-0.382c0.66,0 1.2,-0.18 1.2,-0.4c0,-0.22 0.36,-0.4 0.8,-0.4c0.44,0 0.8,-0.18 0.8,-0.4c0,-0.22 0.45,-0.4 1,-0.4c0.55,0 1,-0.18 1,-0.4c0,-0.22 0.36,-0.4 0.8,-0.4c0.44,0 0.8,-0.18 0.8,-0.4c0,-0.22 0.36,-0.4 0.8,-0.4c0.44,0 0.8,-0.18 0.8,-0.4c0,-0.22 0.54,-0.4 1.2,-0.4c0.66,0 1.2,-0.168 1.2,-0.373c0,-1.324 8.749,-0.914 10.138,0.475m28.747,61.898c0.399,0 1.038,0.165 1.42,0.366c0.382,0.201 1.685,0.765 2.895,1.253c2.45,0.989 6.229,2.654 7.295,3.215c0.382,0.201 1.046,0.366 1.476,0.366c0.43,0 0.893,0.18 1.029,0.4c0.136,0.22 1.846,0.4 3.8,0.4c1.954,0 3.664,-0.18 3.8,-0.4c0.136,-0.22 0.504,-0.4 0.818,-0.4c0.314,0 2.363,-1.17 4.552,-2.6c2.19,-1.43 4.252,-2.6 4.582,-2.6c0.33,0 0.712,-0.18 0.848,-0.4c0.343,-0.555 2.037,-0.5 3.075,0.1c3.484,2.015 4.49,4.158 4.665,9.933c0.326,10.767 -2.685,14.718 -12.94,16.978c-4.014,0.885 -7.4,2.113 -7.4,2.683c0,0.168 -0.188,0.306 -0.418,0.306c-3.526,0 -5.261,8.637 -3.174,15.8c0.257,0.88 0.56,2.187 0.673,2.904c0.114,0.717 0.368,1.402 0.563,1.523c0.706,0.436 0.384,5.84 -0.496,8.346c-1.448,4.121 -3.948,7.214 -3.948,4.884c0,-0.555 -0.18,-1.121 -0.4,-1.257c-0.22,-0.136 -0.4,-0.719 -0.4,-1.295c0,-0.577 -0.168,-1.601 -0.373,-2.277c-0.371,-1.223 -0.961,-3.472 -1.66,-6.328c-0.202,-0.825 -0.54,-2.175 -0.752,-3c-0.395,-1.535 -1.308,-5.532 -2.08,-9.1c-0.238,-1.1 -0.579,-2.36 -0.757,-2.8c-0.178,-0.44 -0.415,-1.34 -0.527,-2c-0.367,-2.173 -0.706,-3.588 -1.054,-4.4c-0.188,-0.44 -0.434,-1.34 -0.545,-2c-0.112,-0.66 -0.385,-1.92 -0.608,-2.8c-0.223,-0.88 -0.593,-2.41 -0.823,-3.4c-0.23,-0.99 -0.706,-2.97 -1.056,-4.4c-0.351,-1.43 -0.73,-3.276 -0.843,-4.103c-0.114,-0.826 -0.367,-1.602 -0.564,-1.723c-0.197,-0.122 -0.358,-0.83 -0.358,-1.574c0,-0.744 -0.18,-1.464 -0.4,-1.6c-0.22,-0.136 -0.4,-0.856 -0.4,-1.6c0,-0.744 -0.18,-1.464 -0.4,-1.6c-0.22,-0.136 -0.4,-0.856 -0.4,-1.6c0,-0.744 -0.18,-1.464 -0.4,-1.6c-0.45,-0.278 -0.548,-2.718 -0.127,-3.14c0.151,-0.15 0.457,-0.09 0.68,0.133c0.224,0.224 0.733,0.407 1.132,0.407m53.635,45.047c2.569,1.298 4.487,4.183 5.998,9.026c0.262,0.84 0.613,1.527 0.779,1.527c0.167,0 0.303,0.349 0.303,0.776c0,0.427 0.18,0.888 0.4,1.024c0.22,0.136 0.4,0.687 0.4,1.224c0,0.537 0.18,0.976 0.4,0.976c0.22,0 0.4,0.414 0.4,0.92c0,0.506 0.159,1.091 0.353,1.3c0.376,0.404 2.804,6.964 3.142,8.486c0.11,0.498 0.359,1.004 0.553,1.124c0.193,0.119 0.352,0.657 0.352,1.194c0,0.537 0.18,0.976 0.4,0.976c0.22,0 0.4,0.362 0.4,0.805c0,0.443 0.159,1.118 0.353,1.5c0.817,1.605 3.003,7.66 5.089,14.095c0.321,0.99 0.758,2.113 0.971,2.495c0.213,0.382 0.387,0.969 0.387,1.305c0,0.336 0.159,0.923 0.353,1.305c3.148,6.188 2.868,8.913 -0.914,8.89c-0.462,-0.003 -1.829,-0.949 -3.039,-2.104c-2.491,-2.375 -5.453,-4.862 -9.077,-7.619c-1.363,-1.036 -2.713,-2.112 -3,-2.391c-0.288,-0.279 -1.153,-0.943 -1.923,-1.475c-0.77,-0.532 -1.49,-1.066 -1.6,-1.187c-0.11,-0.12 -1.1,-0.934 -2.2,-1.807c-7.797,-6.192 -13.395,-13.935 -15.335,-21.212c-0.798,-2.992 -0.956,-3.997 -1.256,-8c-0.165,-2.2 -0.525,-4.72 -0.799,-5.6c-1.097,-3.522 -1.011,-4.827 0.385,-5.86c2.61,-1.929 14.929,-3.106 17.725,-1.693m-43.604,37.353c-0.115,0.44 -0.368,0.8 -0.563,0.8c-0.194,0 -0.353,0.45 -0.353,1c0,0.55 -0.18,1 -0.4,1c-0.22,0 -0.4,0.36 -0.4,0.8c0,0.44 -0.18,0.8 -0.4,0.8c-0.22,0 -0.4,0.54 -0.4,1.2c0,0.66 -0.18,1.2 -0.4,1.2c-0.22,0 -0.4,0.36 -0.4,0.8c0,0.44 -0.18,0.8 -0.4,0.8c-0.22,0 -0.4,0.439 -0.4,0.976c0,0.537 -0.183,1.09 -0.407,1.228c-0.223,0.138 -0.31,0.406 -0.193,0.596c0.117,0.19 0.03,0.458 -0.193,0.596c-0.224,0.138 -0.407,0.601 -0.407,1.028c0,0.427 -0.18,0.776 -0.4,0.776c-0.22,0 -0.4,0.36 -0.4,0.8c0,0.44 -0.18,0.8 -0.4,0.8c-0.22,0 -0.4,0.27 -0.4,0.6c0,0.33 -0.18,0.6 -0.4,0.6c-1.116,0 -0.438,6.444 0.8,7.6c0.66,0.617 1.2,1.387 1.2,1.712c0,0.324 0.27,0.814 0.6,1.088c0.33,0.274 0.6,0.746 0.6,1.049c0,0.303 0.18,0.551 0.4,0.551c0.22,0 0.4,0.54 0.4,1.2c0,0.66 0.18,1.2 0.4,1.2c0.22,0 0.4,0.99 0.4,2.2c0,1.21 -0.18,2.2 -0.4,2.2c-0.22,0 -0.4,0.54 -0.4,1.2c0,0.66 -0.18,1.2 -0.4,1.2c-0.22,0 -0.4,0.36 -0.4,0.8c0,0.44 -0.191,0.8 -0.424,0.8c-0.233,0 -0.312,0.18 -0.176,0.4c0.136,0.22 0.057,0.4 -0.176,0.4c-0.233,0 -0.424,0.194 -0.424,0.431c0,0.238 -0.72,1.123 -1.6,1.969c-0.88,0.846 -1.6,1.732 -1.6,1.971c0,0.238 -1.53,1.956 -3.4,3.818c-1.87,1.861 -3.4,3.648 -3.4,3.971c0,0.322 -0.35,0.697 -0.779,0.833c-1.932,0.613 -1.707,9.643 0.283,11.381c0.713,0.622 1.296,1.383 1.296,1.69c0,0.308 0.36,0.819 0.8,1.136c0.999,0.72 1.034,2.299 0.07,3.153c-0.402,0.356 -0.986,1.232 -1.298,1.947c-0.312,0.715 -0.703,1.3 -0.87,1.3c-0.166,0 -0.302,0.54 -0.302,1.2c0,0.66 -0.169,1.2 -0.375,1.2c-0.207,0 -0.497,0.81 -0.646,1.8c-0.148,0.99 -0.429,1.8 -0.624,1.8c-0.195,0 -0.355,0.36 -0.355,0.8c0,0.44 -0.18,0.8 -0.4,0.8c-0.22,0 -0.4,0.36 -0.4,0.8c0,0.44 -0.18,0.8 -0.4,0.8c-0.22,0 -0.4,0.45 -0.4,1c0,0.55 -0.18,1 -0.4,1c-0.22,0 -0.4,0.36 -0.4,0.8c0,0.44 -0.18,0.8 -0.4,0.8c-0.22,0 -0.4,0.36 -0.4,0.8c0,0.44 -0.18,0.8 -0.4,0.8c-0.22,0 -0.4,0.242 -0.4,0.538c0,0.296 -0.348,0.853 -0.773,1.238c-0.425,0.384 -0.676,0.952 -0.557,1.262c0.118,0.309 0.016,0.562 -0.227,0.562c-0.591,0 -0.566,1.317 0.037,1.92c0.579,0.579 3.12,0.644 3.12,0.08c0,-0.22 0.36,-0.4 0.8,-0.4c0.44,0 0.8,-0.18 0.8,-0.4c0,-0.22 0.36,-0.4 0.8,-0.4c0.44,0 0.8,-0.18 0.8,-0.4c0,-0.22 0.27,-0.4 0.6,-0.4c0.33,0 0.6,-0.18 0.6,-0.4c0,-0.22 0.36,-0.4 0.8,-0.4c0.44,0 0.8,-0.18 0.8,-0.4c0,-0.22 0.36,-0.4 0.8,-0.4c0.44,0 0.8,-0.16 0.8,-0.355c0,-0.196 0.63,-0.474 1.4,-0.619c0.77,-0.144 1.4,-0.434 1.4,-0.644c0,-0.21 0.36,-0.382 0.8,-0.382c0.44,0 0.8,-0.18 0.8,-0.4c0,-0.22 0.36,-0.4 0.8,-0.4c0.44,0 0.8,-0.18 0.8,-0.4c0,-0.22 0.36,-0.4 0.8,-0.4c0.44,0 0.8,-0.18 0.8,-0.4c0,-0.22 0.27,-0.4 0.6,-0.4c0.33,0 0.6,-0.18 0.6,-0.4c0,-0.22 0.36,-0.4 0.8,-0.4c0.44,0 0.8,-0.18 0.8,-0.4c0,-0.22 0.36,-0.4 0.8,-0.4c0.44,0 0.8,-0.16 0.8,-0.355c0,-0.196 0.63,-0.474 1.4,-0.619c0.77,-0.144 1.4,-0.434 1.4,-0.644c0,-0.21 0.36,-0.382 0.8,-0.382c0.44,0 0.8,-0.18 0.8,-0.4c0,-0.22 0.36,-0.4 0.8,-0.4c0.44,0 0.8,-0.18 0.8,-0.4c0,-0.22 0.36,-0.4 0.8,-0.4c0.44,0 0.8,-0.18 0.8,-0.4c0,-0.22 0.27,-0.4 0.6,-0.4c0.33,0 0.6,-0.18 0.6,-0.4c0,-0.22 0.45,-0.4 1,-0.4c1.136,0 1.275,0.467 0.4,1.343c-0.33,0.33 -0.6,1.027 -0.6,1.548c0,0.522 -0.19,1.139 -0.423,1.372c-0.233,0.233 -0.528,1.439 -0.656,2.68c-0.128,1.241 -0.388,2.257 -0.577,2.257c-0.189,0 -0.344,0.45 -0.344,1c0,0.55 -0.18,1 -0.4,1c-0.22,0 -0.4,0.54 -0.4,1.2c0,0.66 -0.18,1.2 -0.4,1.2c-0.22,0 -0.4,0.54 -0.4,1.2c0,0.66 -0.18,1.2 -0.4,1.2c-0.22,0 -0.4,0.63 -0.4,1.4c0,0.77 -0.18,1.4 -0.4,1.4c-0.22,0 -0.4,0.54 -0.4,1.2c0,0.66 -0.18,1.2 -0.4,1.2c-0.22,0 -0.4,0.439 -0.4,0.976c0,0.537 -0.159,1.075 -0.353,1.195c-0.194,0.12 -0.478,1.39 -0.632,2.823c-0.153,1.433 -0.444,2.606 -0.647,2.606c-0.202,0 -0.368,0.27 -0.368,0.6c0,0.33 -0.18,0.6 -0.4,0.6c-0.22,0 -0.4,0.276 -0.4,0.613c0,0.796 -2.591,3.387 -3.387,3.387c-0.337,0 -0.613,0.157 -0.613,0.348c0,0.192 -1.075,0.47 -2.388,0.619c-1.313,0.148 -2.494,0.442 -2.623,0.651c-0.13,0.21 -0.856,0.382 -1.613,0.382c-0.757,0 -1.376,0.18 -1.376,0.4c0,0.22 -0.54,0.4 -1.2,0.4c-0.66,0 -1.2,0.18 -1.2,0.4c0,0.22 -0.63,0.4 -1.4,0.4c-0.77,0 -1.4,0.18 -1.4,0.4c0,0.22 -0.54,0.4 -1.2,0.4c-0.66,0 -1.2,0.18 -1.2,0.4c0,0.22 -0.72,0.4 -1.6,0.4c-0.88,0 -1.6,0.18 -1.6,0.4c0,0.22 -0.45,0.4 -1,0.4c-0.55,0 -1,0.18 -1,0.4c0,0.22 -0.705,0.4 -1.567,0.4c-0.861,0 -1.626,0.178 -1.7,0.396c-0.073,0.218 -1.258,0.514 -2.633,0.657c-1.375,0.144 -2.5,0.415 -2.5,0.604c0,0.189 -0.54,0.343 -1.2,0.343c-0.66,0 -1.2,0.18 -1.2,0.4c0,0.22 -0.63,0.4 -1.4,0.4c-0.77,0 -1.4,0.18 -1.4,0.4c0,0.22 -0.54,0.4 -1.2,0.4c-0.66,0 -1.2,0.18 -1.2,0.4c0,0.22 -0.63,0.4 -1.4,0.4c-0.77,0 -1.4,0.18 -1.4,0.4c0,0.22 -0.54,0.4 -1.2,0.4c-0.66,0 -1.2,0.18 -1.2,0.4c0,0.22 -0.63,0.4 -1.4,0.4c-0.77,0 -1.4,0.162 -1.4,0.361c0,0.198 -1.08,0.486 -2.4,0.639c-1.32,0.153 -2.4,0.441 -2.4,0.639c0,0.199 -0.63,0.361 -1.4,0.361c-0.77,0 -1.4,0.18 -1.4,0.4c0,0.22 -0.54,0.4 -1.2,0.4c-0.66,0 -1.2,0.18 -1.2,0.4c0,0.22 -0.63,0.4 -1.4,0.4c-0.77,0 -1.4,0.18 -1.4,0.4c0,0.22 -0.54,0.4 -1.2,0.4c-0.66,0 -1.2,0.18 -1.2,0.4c0,0.22 -0.72,0.4 -1.6,0.4c-0.88,0 -1.6,0.18 -1.6,0.4c0,0.22 -0.45,0.4 -1,0.4c-0.55,0 -1,0.154 -1,0.343c0,0.189 -1.125,0.46 -2.5,0.604c-1.375,0.143 -2.56,0.439 -2.633,0.657c-0.074,0.218 -0.659,0.396 -1.3,0.396c-0.642,0 -1.167,0.18 -1.167,0.4c0,0.22 -0.63,0.4 -1.4,0.4c-0.77,0 -1.4,0.18 -1.4,0.4c0,0.22 -0.54,0.4 -1.2,0.4c-0.66,0 -1.2,0.18 -1.2,0.4c0,0.22 -0.72,0.4 -1.6,0.4c-0.88,0 -1.6,0.18 -1.6,0.4c0,0.22 -0.45,0.4 -1,0.4c-0.55,0 -1,0.18 -1,0.4c0,0.22 -0.72,0.4 -1.6,0.4c-0.88,0 -1.6,0.163 -1.6,0.362c0,0.36 -3.738,1.07 -4.7,0.894c-0.275,-0.05 -0.5,0.097 -0.5,0.326c0,0.23 -0.54,0.418 -1.2,0.418c-0.66,0 -1.2,0.18 -1.2,0.4c0,0.22 -0.63,0.4 -1.4,0.4c-0.77,0 -1.4,0.18 -1.4,0.4c0,0.22 -0.54,0.4 -1.2,0.4c-0.66,0 -1.2,0.18 -1.2,0.4c0,0.22 -0.435,0.4 -0.967,0.4c-0.531,0 -1.026,0.156 -1.1,0.347c-0.073,0.191 -0.538,0.473 -1.033,0.627c-1.071,0.333 -1.249,-0.567 -0.3,-1.517c0.33,-0.33 0.6,-0.883 0.6,-1.228c0,-0.346 0.177,-0.629 0.392,-0.629c0.216,0 0.506,-0.45 0.644,-1c0.138,-0.55 0.411,-1 0.607,-1c0.197,0 0.357,-0.36 0.357,-0.8c0,-0.44 0.18,-0.8 0.4,-0.8c0.22,0 0.4,-0.36 0.4,-0.8c0,-0.44 0.18,-0.8 0.4,-0.8c0.22,0 0.4,-0.348 0.4,-0.773c0,-0.425 0.36,-0.887 0.8,-1.027c0.44,-0.14 0.8,-0.602 0.8,-1.027c0,-0.425 0.18,-0.773 0.4,-0.773c0.22,0 0.4,-0.36 0.4,-0.8c0,-0.44 0.18,-0.8 0.4,-0.8c0.22,0 0.4,-0.36 0.4,-0.8c0,-0.44 0.177,-0.8 0.392,-0.8c0.216,0 0.506,-0.45 0.644,-1c0.138,-0.55 0.411,-1 0.607,-1c0.197,0 0.357,-0.36 0.357,-0.8c0,-0.44 0.18,-0.8 0.4,-0.8c0.22,0 0.4,-0.36 0.4,-0.8c0,-0.44 0.18,-0.8 0.4,-0.8c0.22,0 0.4,-0.32 0.4,-0.712c0,-0.391 0.36,-0.971 0.8,-1.288c0.44,-0.317 0.8,-0.807 0.8,-1.088c0,-0.282 0.18,-0.512 0.4,-0.512c0.22,0 0.4,-0.36 0.4,-0.8c0,-0.44 0.164,-0.8 0.365,-0.8c0.201,0 0.485,-0.712 0.632,-1.583c0.179,-1.061 0.521,-1.664 1.035,-1.827c0.423,-0.134 0.768,-0.592 0.768,-1.017c0,-0.425 0.18,-0.773 0.4,-0.773c0.22,0 0.4,-0.36 0.4,-0.8c0,-0.44 0.18,-0.8 0.4,-0.8c0.22,0 0.4,-0.294 0.4,-0.653c0,-0.359 0.324,-0.944 0.72,-1.3c0.833,-0.748 2.08,-3.271 2.08,-4.207c0,-0.352 0.18,-0.64 0.4,-0.64c0.22,0 0.4,-0.36 0.4,-0.8c0,-0.44 0.18,-0.8 0.4,-0.8c0.223,0 0.4,-1.084 0.4,-2.453c0,-2.382 -0.82,-3.947 -2.069,-3.947c-0.19,0 -1.557,-1.212 -3.038,-2.693l-2.693,-2.692l0,-3.374c0,-2.344 0.153,-3.425 0.5,-3.541c0.275,-0.092 0.5,-0.422 0.5,-0.733c0,-0.312 0.18,-0.567 0.4,-0.567c0.22,0 0.4,-0.36 0.4,-0.8c0,-0.44 0.18,-0.8 0.4,-0.8c0.22,0 0.4,-0.294 0.4,-0.653c0,-0.359 0.316,-0.944 0.703,-1.3c0.386,-0.356 0.971,-1.187 1.3,-1.847c0.328,-0.66 0.822,-1.438 1.097,-1.729c0.275,-0.29 0.5,-1.055 0.5,-1.7c0,-0.644 0.18,-1.171 0.4,-1.171c0.22,0 0.4,-0.27 0.4,-0.6c0,-0.33 0.18,-0.6 0.4,-0.6c0.22,0 0.4,-0.72 0.4,-1.6c0,-0.88 0.18,-1.6 0.4,-1.6c0.231,0 0.4,-1.267 0.4,-3c0,-1.733 -0.169,-3 -0.4,-3c-0.22,0 -0.4,-0.54 -0.4,-1.2c0,-0.66 -0.18,-1.2 -0.4,-1.2c-0.22,0 -0.4,-0.188 -0.4,-0.417c0,-0.487 -0.351,-0.927 -2.874,-3.598c-1.031,-1.092 -2.156,-1.985 -2.5,-1.985c-0.344,0 -0.626,-0.172 -0.626,-0.382c0,-0.21 -0.63,-0.5 -1.4,-0.644c-0.77,-0.145 -1.4,-0.423 -1.4,-0.619c0,-0.195 -0.54,-0.355 -1.2,-0.355c-0.66,0 -1.2,-0.18 -1.2,-0.4c0,-0.22 -0.63,-0.4 -1.4,-0.4c-0.77,0 -1.4,-0.18 -1.4,-0.4c0,-0.22 -0.54,-0.4 -1.2,-0.4c-0.66,0 -1.2,-0.18 -1.2,-0.4c0,-0.22 -0.54,-0.4 -1.2,-0.4c-0.66,0 -1.2,-0.18 -1.2,-0.4c0,-0.22 -0.63,-0.4 -1.4,-0.4c-0.77,0 -1.4,-0.18 -1.4,-0.4c0,-0.22 -0.54,-0.4 -1.2,-0.4c-0.66,0 -1.2,-0.159 -1.2,-0.353c0,-0.195 -1.17,-0.479 -2.6,-0.632c-1.43,-0.153 -2.6,-0.444 -2.6,-0.647c0,-0.202 -0.63,-0.368 -1.4,-0.368c-0.77,0 -1.4,-0.18 -1.4,-0.4c0,-0.22 -0.54,-0.4 -1.2,-0.4c-0.66,0 -1.2,-0.18 -1.2,-0.4c0,-0.22 -0.54,-0.4 -1.2,-0.4c-0.66,0 -1.2,-0.18 -1.2,-0.4c0,-0.22 -0.63,-0.4 -1.4,-0.4c-0.77,0 -1.4,-0.18 -1.4,-0.4c0,-0.22 -0.54,-0.4 -1.2,-0.4c-0.66,0 -1.2,-0.18 -1.2,-0.4c0,-0.22 -0.594,-0.4 -1.32,-0.4c-0.726,0 -1.499,-0.179 -1.718,-0.398c-0.218,-0.218 -1.514,-0.514 -2.88,-0.656c-1.365,-0.143 -2.482,-0.414 -2.482,-0.603c0,-0.189 -0.45,-0.343 -1,-0.343c-0.55,0 -1,-0.157 -1,-0.348c0,-0.192 -0.9,-0.468 -2,-0.614c-1.1,-0.146 -2,-0.429 -2,-0.628c0,-0.54 0.904,-1.006 1.7,-0.875c0.385,0.063 0.7,-0.076 0.7,-0.31c0,-0.234 0.36,-0.425 0.8,-0.425c0.44,0 0.8,-0.18 0.8,-0.4c0,-0.22 0.45,-0.4 1,-0.4c0.55,0 1,-0.18 1,-0.4c0,-0.22 0.36,-0.4 0.8,-0.4c0.44,0 0.8,-0.16 0.8,-0.355c0,-0.196 0.675,-0.477 1.5,-0.625c1.806,-0.325 3.7,-1.101 3.7,-1.518c0,-0.166 0.36,-0.302 0.8,-0.302c0.44,0 0.8,-0.18 0.8,-0.4c0,-0.22 0.54,-0.4 1.2,-0.4c0.66,0 1.2,-0.18 1.2,-0.4c0,-0.22 0.27,-0.4 0.6,-0.4c0.33,0 0.6,-0.18 0.6,-0.4c0,-0.22 0.36,-0.4 0.8,-0.4c0.44,0 0.8,-0.18 0.8,-0.4c0,-0.22 0.36,-0.4 0.8,-0.4c0.44,0 0.8,-0.156 0.8,-0.347c0,-0.191 0.761,-0.45 1.691,-0.575c0.931,-0.124 1.756,-0.418 1.834,-0.652c0.078,-0.234 0.487,-0.426 0.908,-0.426c0.422,0 0.767,-0.18 0.767,-0.4c0,-0.22 0.36,-0.4 0.8,-0.4c0.44,0 0.8,-0.18 0.8,-0.4c0,-0.22 0.54,-0.4 1.2,-0.4c0.66,0 1.2,-0.18 1.2,-0.4c0,-0.22 0.27,-0.4 0.6,-0.4c0.33,0 0.6,-0.18 0.6,-0.4c0,-0.22 0.36,-0.4 0.8,-0.4c0.44,0 0.8,-0.18 0.8,-0.4c0,-0.22 0.54,-0.4 1.2,-0.4c0.66,0 1.2,-0.172 1.2,-0.382c0,-0.21 0.63,-0.5 1.4,-0.644c0.77,-0.145 1.4,-0.423 1.4,-0.619c0,-0.195 0.54,-0.355 1.2,-0.355c0.66,0 1.2,-0.18 1.2,-0.4c0,-0.22 0.36,-0.4 0.8,-0.4c0.44,0 0.8,-0.18 0.8,-0.4c0,-0.22 0.45,-0.4 1,-0.4c0.55,0 1,-0.18 1,-0.4c0,-0.22 0.36,-0.4 0.8,-0.4c0.44,0 0.8,-0.18 0.8,-0.4c0,-0.22 0.54,-0.4 1.2,-0.4c0.66,0 1.2,-0.18 1.2,-0.4c0,-0.22 0.27,-0.4 0.6,-0.4c0.33,0 0.6,-0.169 0.6,-0.375c0,-0.207 0.855,-0.502 1.9,-0.656c1.045,-0.154 1.99,-0.39 2.1,-0.525c0.436,-0.533 2.033,-1.244 2.795,-1.244c0.443,0 0.805,-0.18 0.805,-0.4c0,-0.22 0.36,-0.4 0.8,-0.4c0.44,0 0.8,-0.18 0.8,-0.4c0,-0.22 0.54,-0.4 1.2,-0.4c0.66,0 1.2,-0.18 1.2,-0.4c0,-0.22 0.45,-0.4 1,-0.4c0.55,0 1,-0.18 1,-0.4c0,-0.22 0.54,-0.4 1.2,-0.4c0.66,0 1.2,-0.18 1.2,-0.4c0,-0.22 0.908,-0.4 2.018,-0.4c2.004,0 3.982,1.19 3.982,2.395c0,0.237 0.63,1.062 1.4,1.832c0.77,0.77 1.4,1.591 1.4,1.826c0,0.234 0.54,0.93 1.2,1.547c0.66,0.617 1.2,1.369 1.2,1.672c0,0.303 0.36,0.811 0.8,1.128c0.44,0.317 0.8,0.767 0.8,1c0,0.233 0.36,0.683 0.8,1c0.44,0.317 0.8,0.875 0.8,1.239c0,0.365 0.27,0.887 0.6,1.161c0.33,0.274 0.6,0.793 0.6,1.153c0,0.36 0.36,0.879 0.8,1.154c0.44,0.275 0.8,0.768 0.8,1.096c0,0.329 0.18,0.597 0.4,0.597c0.22,0 0.4,0.36 0.4,0.8c0,0.44 0.18,0.8 0.4,0.8c0.22,0 0.4,0.36 0.4,0.8c0,0.44 0.18,0.8 0.4,0.8c0.22,0 0.4,0.81 0.4,1.8c0,0.99 -0.18,1.8 -0.4,1.8c-0.22,0 -0.4,0.284 -0.4,0.631c0,0.348 -0.696,1.301 -1.547,2.118c-0.851,0.817 -1.673,1.883 -1.827,2.369c-0.154,0.485 -0.448,0.882 -0.653,0.882c-0.205,0 -0.373,0.32 -0.373,0.712c0,0.391 -0.36,0.971 -0.8,1.288c-0.44,0.317 -0.8,0.897 -0.8,1.288c0,0.392 -0.18,0.712 -0.4,0.712c-0.22,0 -0.4,0.27 -0.4,0.6c0,0.33 -0.18,0.6 -0.4,0.6c-0.22,0 -0.4,0.72 -0.4,1.6c0,0.88 -0.18,1.6 -0.4,1.6c-0.22,0 -0.4,0.439 -0.4,0.976c0,0.537 0.18,1.088 0.4,1.224c0.22,0.136 0.4,0.789 0.4,1.452c0,2.156 1.727,3.071 2.812,1.491c0.323,-0.471 0.997,-1.236 1.498,-1.7c1.068,-0.989 5.673,-5.557 6.371,-6.318c0.887,-0.968 1.681,-1.525 2.202,-1.543c0.284,-0.011 1.147,-0.739 1.917,-1.618c0.77,-0.88 1.987,-2.176 2.704,-2.882c2.655,-2.612 4.732,-4.713 6.007,-6.078c0.722,-0.772 1.622,-1.412 2,-1.422c0.379,-0.011 1.319,-0.738 2.089,-1.617c2.861,-3.266 4.045,-4.365 4.713,-4.377c0.378,-0.007 1.137,-0.56 1.687,-1.23c0.55,-0.669 1.765,-1.969 2.701,-2.888c0.935,-0.918 2.285,-2.257 3,-2.974c0.714,-0.717 2.065,-2.067 3.001,-3c1.813,-1.807 4.042,-4.038 6.79,-6.797c2.311,-2.322 3.633,-3.499 3.925,-3.499c0.135,0 0.937,-0.72 1.783,-1.6c0.846,-0.88 1.821,-1.6 2.169,-1.6c0.347,0 0.631,-0.168 0.631,-0.373c0,-0.205 0.405,-0.501 0.9,-0.657c0.495,-0.157 1.191,-0.619 1.547,-1.027c0.356,-0.409 0.941,-0.743 1.3,-0.743c0.359,0 0.653,-0.18 0.653,-0.4c0,-0.22 0.341,-0.4 0.757,-0.4c0.417,0 0.865,-0.281 0.997,-0.625c0.341,-0.889 1.013,-0.337 0.762,0.625m99.251,21.443c0.348,0.133 0.633,0.583 0.633,1c0,0.416 0.18,0.757 0.4,0.757c0.22,0 0.4,0.36 0.4,0.8c0,0.44 0.16,0.8 0.355,0.8c0.196,0 0.474,0.63 0.619,1.4c0.144,0.77 0.434,1.4 0.644,1.4c0.21,0 0.382,0.36 0.382,0.8c0,0.44 0.18,0.8 0.4,0.8c0.22,0 0.4,0.284 0.4,0.631c0,0.348 0.714,1.293 1.587,2.1c2.33,2.156 2.735,2.469 3.196,2.469c0.229,0 0.417,0.18 0.417,0.4c0,0.22 0.54,0.4 1.2,0.4c0.66,0 1.2,0.18 1.2,0.4c0,0.22 0.54,0.4 1.2,0.4c0.66,0 1.2,0.18 1.2,0.4c0,0.22 0.41,0.4 0.912,0.4c0.501,0 1.171,0.36 1.488,0.8c0.317,0.44 0.814,0.8 1.105,0.8c0.981,0 3.695,2.593 3.695,3.53c0,0.381 0.36,0.953 0.8,1.27c0.47,0.339 0.8,1.035 0.8,1.688c0,0.612 0.18,1.112 0.4,1.112c0.22,0 0.4,0.45 0.4,1c0,0.55 0.18,1 0.4,1c0.22,0 0.4,0.99 0.4,2.2c0,1.21 0.18,2.2 0.4,2.2c0.22,0 0.4,0.72 0.4,1.6c0,0.88 0.18,1.6 0.4,1.6c0.22,0 0.4,0.36 0.4,0.8c0,0.44 0.18,0.8 0.4,0.8c0.22,0 0.4,0.248 0.4,0.551c0,0.303 0.27,0.775 0.6,1.049c0.33,0.274 0.6,0.796 0.6,1.161c0,0.364 0.36,0.922 0.8,1.239c0.44,0.317 0.8,0.857 0.8,1.2c0,0.343 0.36,0.883 0.8,1.2c0.44,0.317 0.8,0.767 0.8,1c0,0.233 0.36,0.683 0.8,1c0.44,0.317 0.8,0.801 0.8,1.075c0,0.744 1.299,3.325 1.674,3.325c0.179,0 0.326,0.23 0.326,0.512c0,0.281 0.36,0.771 0.8,1.088c0.44,0.317 0.8,0.857 0.8,1.2c0,0.343 0.36,0.883 0.8,1.2c0.44,0.317 0.8,0.897 0.8,1.288c0,0.392 0.139,0.712 0.309,0.712c0.17,0 0.648,0.63 1.063,1.4c0.415,0.77 0.906,1.4 1.091,1.4c0.185,0 0.337,0.36 0.337,0.8c0,0.44 0.18,0.8 0.4,0.8c0.22,0 0.4,0.32 0.4,0.712c0,0.391 0.36,0.971 0.8,1.288c0.44,0.317 0.8,0.767 0.8,1c0,0.233 0.36,0.683 0.8,1c0.44,0.317 0.8,0.897 0.8,1.288c0,0.392 0.162,0.712 0.361,0.712c0.198,0 0.55,0.542 0.781,1.205c0.231,0.663 0.699,1.312 1.039,1.443c0.34,0.131 0.619,0.512 0.619,0.848c0,0.336 0.38,0.939 0.844,1.342c0.759,0.658 0.782,0.793 0.228,1.347c-0.658,0.658 -2.672,0.852 -2.672,0.257c0,-0.597 -2.282,-2.842 -2.889,-2.842c-0.656,0 -4.311,-3.386 -4.311,-3.993c0,-0.224 -0.288,-0.407 -0.64,-0.407c-0.351,0 -1.161,-0.559 -1.8,-1.242c-0.638,-0.684 -1.16,-1.115 -1.16,-0.958c0,0.157 -0.54,-0.293 -1.2,-1c-0.66,-0.707 -1.2,-1.446 -1.2,-1.642c0,-0.197 -0.275,-0.358 -0.611,-0.358c-0.335,0 -1.405,-0.765 -2.376,-1.7c-2.084,-2.005 -2.903,-2.7 -3.186,-2.7c-0.114,0 -1.406,-1.17 -2.872,-2.6c-1.466,-1.43 -2.829,-2.6 -3.029,-2.6c-0.201,0 -1.607,-1.26 -3.126,-2.8c-1.519,-1.54 -2.946,-2.8 -3.172,-2.8c-0.226,0 -1.401,-0.99 -2.611,-2.2c-1.21,-1.21 -2.358,-2.2 -2.552,-2.2c-0.193,0 -1.539,-1.17 -2.99,-2.6c-1.452,-1.43 -2.872,-2.601 -3.157,-2.601c-0.285,-0.001 -0.878,-0.54 -1.318,-1.199c-0.44,-0.659 -0.927,-1.198 -1.082,-1.199c-0.155,0 -0.732,-0.451 -1.282,-1.001c-0.55,-0.55 -1.233,-1.005 -1.518,-1.012c-0.285,-0.007 -0.968,-0.559 -1.518,-1.228c-2.044,-2.485 -3.646,-3.96 -4.313,-3.972c-0.378,-0.007 -1.137,-0.555 -1.687,-1.218c-2.21,-2.667 -3.967,-4.37 -4.507,-4.37c-0.314,0 -0.986,-0.36 -1.493,-0.8c-0.507,-0.44 -0.715,-0.8 -0.461,-0.8c0.253,0 0.461,-0.198 0.461,-0.44c0,-0.241 0.54,-0.943 1.2,-1.56c0.66,-0.617 1.2,-1.369 1.2,-1.672c0,-0.303 0.36,-0.811 0.8,-1.128c0.44,-0.317 0.8,-0.769 0.8,-1.005c0,-0.236 0.63,-1.096 1.4,-1.913c0.77,-0.816 1.4,-1.714 1.4,-1.995c0,-0.281 0.387,-0.775 0.859,-1.099c0.473,-0.323 1.418,-1.175 2.1,-1.892c0.683,-0.717 2.011,-2.112 2.952,-3.1c1.872,-1.966 1.756,-1.898 2.656,-1.553" style="fill:#1e19d0;"/>
    </g>
</svg>
